<?xml version="1.0" encoding="UTF-8" standalone="no"?>
<!DOCTYPE svg PUBLIC "-//W3C//DTD SVG 1.1//EN" "http://www.w3.org/Graphics/SVG/1.1/DTD/svg11.dtd">
<svg width="100%" height="100%" viewBox="0 0 510 276" version="1.1" xmlns="http://www.w3.org/2000/svg" xmlns:xlink="http://www.w3.org/1999/xlink" xml:space="preserve" xmlns:serif="http://www.serif.com/" style="fill-rule:evenodd;clip-rule:evenodd;stroke-linecap:round;stroke-linejoin:round;stroke-miterlimit:1.5;">
    <g transform="matrix(1,0,0,1,-123.06,-232.312)">
        <g id="text" transform="matrix(0.590551,0,0,0.590551,-76.2571,-219.049)">
            <g transform="matrix(1.36612,-1.2326e-32,1.2326e-32,1.36612,-156.33,-93.7715)">
                <g transform="matrix(61,0,0,61,487.357,905.219)">
                    <path d="M0.357,-0.132C0.357,-0.082 0.374,-0.057 0.408,-0.057C0.413,-0.057 0.421,-0.058 0.432,-0.06C0.443,-0.061 0.451,-0.062 0.456,-0.062C0.465,-0.062 0.472,-0.059 0.479,-0.053C0.485,-0.046 0.488,-0.039 0.488,-0.03C0.488,-0.007 0.473,0.005 0.443,0.005L0.437,0.005C0.434,0.004 0.431,0.004 0.43,0.004L0.381,-0.003C0.362,-0.006 0.341,-0.007 0.318,-0.007C0.293,-0.007 0.27,-0.006 0.251,-0.003L0.201,0.004C0.199,0.004 0.197,0.004 0.194,0.005L0.187,0.005C0.158,0.005 0.143,-0.007 0.143,-0.03C0.143,-0.051 0.154,-0.062 0.175,-0.062C0.18,-0.062 0.188,-0.061 0.199,-0.06C0.21,-0.058 0.218,-0.057 0.223,-0.057C0.256,-0.057 0.273,-0.082 0.273,-0.132L0.273,-0.202L0.274,-0.29L0.274,-0.375L0.273,-0.538C0.273,-0.585 0.249,-0.609 0.2,-0.609L0.169,-0.609C0.121,-0.609 0.097,-0.586 0.097,-0.539C0.097,-0.522 0.097,-0.511 0.098,-0.505L0.102,-0.468C0.103,-0.462 0.103,-0.454 0.103,-0.443C0.103,-0.401 0.09,-0.38 0.064,-0.38C0.039,-0.38 0.027,-0.395 0.027,-0.426C0.027,-0.435 0.028,-0.45 0.029,-0.471C0.031,-0.503 0.032,-0.523 0.032,-0.532C0.032,-0.549 0.031,-0.566 0.03,-0.584C0.027,-0.619 0.026,-0.634 0.026,-0.629C0.026,-0.657 0.039,-0.671 0.064,-0.671C0.073,-0.671 0.095,-0.67 0.129,-0.668C0.132,-0.668 0.16,-0.667 0.211,-0.666L0.325,-0.664C0.338,-0.664 0.374,-0.665 0.432,-0.666C0.445,-0.666 0.466,-0.667 0.497,-0.669C0.524,-0.671 0.546,-0.672 0.561,-0.672C0.594,-0.672 0.611,-0.658 0.611,-0.631L0.611,-0.629C0.611,-0.622 0.61,-0.61 0.609,-0.592C0.607,-0.574 0.605,-0.555 0.603,-0.534L0.603,-0.523C0.603,-0.513 0.604,-0.497 0.606,-0.476C0.609,-0.448 0.61,-0.431 0.61,-0.424C0.61,-0.397 0.597,-0.383 0.571,-0.383C0.546,-0.383 0.533,-0.4 0.533,-0.433C0.533,-0.445 0.534,-0.463 0.536,-0.487C0.538,-0.51 0.539,-0.528 0.539,-0.54C0.539,-0.586 0.513,-0.609 0.46,-0.609L0.432,-0.609C0.407,-0.609 0.39,-0.604 0.379,-0.594C0.368,-0.583 0.362,-0.566 0.361,-0.542L0.358,-0.472L0.357,-0.132Z" style="fill:rgb(89,89,89);fill-rule:nonzero;"/>
                </g>
                <g transform="matrix(61,0,0,61,526.214,905.219)">
                    <path d="M0.19,-0.471L0.19,-0.444C0.225,-0.493 0.271,-0.517 0.329,-0.517C0.376,-0.517 0.413,-0.504 0.443,-0.478C0.471,-0.451 0.486,-0.417 0.486,-0.376C0.486,-0.347 0.479,-0.323 0.464,-0.305C0.449,-0.286 0.43,-0.277 0.406,-0.277C0.391,-0.277 0.378,-0.282 0.367,-0.291C0.356,-0.3 0.351,-0.312 0.351,-0.325C0.351,-0.336 0.355,-0.345 0.363,-0.354C0.371,-0.362 0.38,-0.366 0.391,-0.366C0.393,-0.366 0.397,-0.365 0.404,-0.363C0.408,-0.371 0.41,-0.378 0.41,-0.385C0.41,-0.404 0.402,-0.421 0.385,-0.434C0.368,-0.447 0.346,-0.454 0.321,-0.454C0.269,-0.454 0.234,-0.431 0.217,-0.384C0.206,-0.355 0.201,-0.312 0.201,-0.254L0.201,-0.188C0.201,-0.143 0.201,-0.118 0.202,-0.113C0.205,-0.075 0.216,-0.056 0.233,-0.056C0.242,-0.056 0.251,-0.057 0.26,-0.06C0.267,-0.062 0.274,-0.063 0.279,-0.063C0.3,-0.063 0.311,-0.052 0.311,-0.031C0.311,-0.008 0.297,0.004 0.27,0.004L0.266,0.004C0.256,0.004 0.241,0.003 0.221,0.001C0.2,-0.002 0.185,-0.003 0.175,-0.003C0.148,-0.003 0.127,-0.002 0.112,-0.001L0.056,0.004C0.029,0.004 0.015,-0.008 0.015,-0.031C0.015,-0.052 0.028,-0.062 0.053,-0.062C0.06,-0.062 0.065,-0.062 0.068,-0.061L0.083,-0.058C0.09,-0.057 0.094,-0.056 0.097,-0.056C0.114,-0.056 0.123,-0.071 0.124,-0.102L0.126,-0.153L0.123,-0.38C0.121,-0.419 0.111,-0.439 0.093,-0.439C0.088,-0.439 0.08,-0.438 0.071,-0.436C0.062,-0.434 0.054,-0.433 0.049,-0.433C0.027,-0.433 0.016,-0.444 0.016,-0.465C0.016,-0.488 0.03,-0.5 0.059,-0.5C0.066,-0.5 0.076,-0.499 0.089,-0.498C0.102,-0.496 0.112,-0.495 0.119,-0.495C0.124,-0.495 0.133,-0.496 0.145,-0.497C0.15,-0.498 0.157,-0.499 0.164,-0.499C0.181,-0.499 0.19,-0.49 0.19,-0.471Z" style="fill:rgb(89,89,89);fill-rule:nonzero;"/>
                </g>
                <g transform="matrix(61,0,0,61,556.165,905.219)">
                    <path d="M0.493,-0.294C0.493,-0.269 0.491,-0.253 0.488,-0.248C0.485,-0.242 0.475,-0.239 0.459,-0.239L0.141,-0.239C0.132,-0.239 0.127,-0.238 0.124,-0.236C0.121,-0.233 0.12,-0.229 0.12,-0.224C0.12,-0.174 0.135,-0.132 0.165,-0.099C0.195,-0.066 0.232,-0.049 0.277,-0.049C0.306,-0.049 0.333,-0.057 0.358,-0.073C0.382,-0.089 0.398,-0.109 0.405,-0.134L0.414,-0.163C0.419,-0.179 0.43,-0.187 0.447,-0.187C0.472,-0.187 0.484,-0.174 0.484,-0.149C0.484,-0.106 0.462,-0.067 0.418,-0.034C0.374,0 0.324,0.017 0.268,0.017C0.198,0.017 0.142,-0.006 0.101,-0.054C0.06,-0.1 0.039,-0.164 0.039,-0.243C0.039,-0.324 0.061,-0.39 0.105,-0.441C0.149,-0.492 0.206,-0.517 0.277,-0.517C0.34,-0.517 0.391,-0.496 0.432,-0.454C0.473,-0.412 0.493,-0.359 0.493,-0.294ZM0.13,-0.32C0.13,-0.311 0.137,-0.306 0.152,-0.306L0.391,-0.306C0.405,-0.306 0.412,-0.311 0.412,-0.32C0.412,-0.355 0.399,-0.386 0.372,-0.412C0.345,-0.438 0.314,-0.451 0.278,-0.451C0.241,-0.451 0.207,-0.438 0.176,-0.411C0.145,-0.384 0.13,-0.353 0.13,-0.32Z" style="fill:rgb(89,89,89);fill-rule:nonzero;"/>
                </g>
                <g transform="matrix(61,0,0,61,588.373,905.219)">
                    <path d="M0.469,0.013C0.414,0.013 0.381,-0.011 0.368,-0.058C0.334,-0.008 0.281,0.017 0.208,0.017C0.154,0.017 0.111,0.004 0.079,-0.023C0.046,-0.05 0.03,-0.085 0.03,-0.13C0.03,-0.185 0.054,-0.226 0.101,-0.252C0.119,-0.262 0.134,-0.269 0.148,-0.272C0.161,-0.275 0.187,-0.278 0.226,-0.283C0.282,-0.289 0.319,-0.297 0.336,-0.308C0.353,-0.319 0.361,-0.338 0.361,-0.367C0.361,-0.394 0.352,-0.416 0.333,-0.432C0.314,-0.447 0.287,-0.455 0.253,-0.455C0.223,-0.455 0.195,-0.447 0.169,-0.43C0.159,-0.423 0.154,-0.416 0.154,-0.409C0.154,-0.406 0.157,-0.403 0.163,-0.399C0.172,-0.392 0.177,-0.381 0.177,-0.365C0.177,-0.352 0.172,-0.341 0.163,-0.332C0.153,-0.323 0.141,-0.319 0.126,-0.319C0.109,-0.319 0.094,-0.325 0.083,-0.337C0.071,-0.349 0.065,-0.364 0.065,-0.381C0.065,-0.418 0.084,-0.45 0.121,-0.477C0.158,-0.504 0.202,-0.517 0.255,-0.517C0.376,-0.517 0.437,-0.459 0.437,-0.342L0.437,-0.14C0.437,-0.108 0.438,-0.089 0.439,-0.083C0.443,-0.06 0.454,-0.048 0.473,-0.048C0.496,-0.048 0.508,-0.069 0.508,-0.112L0.508,-0.161C0.508,-0.182 0.518,-0.193 0.539,-0.193C0.561,-0.193 0.572,-0.177 0.572,-0.145L0.572,-0.14L0.571,-0.083C0.57,-0.019 0.536,0.013 0.469,0.013ZM0.358,-0.186L0.359,-0.257C0.344,-0.244 0.329,-0.234 0.313,-0.229C0.296,-0.224 0.267,-0.219 0.225,-0.215C0.149,-0.208 0.111,-0.18 0.111,-0.131C0.111,-0.106 0.12,-0.086 0.139,-0.071C0.157,-0.056 0.182,-0.049 0.213,-0.049C0.258,-0.049 0.293,-0.061 0.319,-0.086C0.344,-0.11 0.357,-0.143 0.358,-0.186Z" style="fill:rgb(89,89,89);fill-rule:nonzero;"/>
                </g>
                <g transform="matrix(61,0,0,61,622.777,905.219)">
                    <path d="M0.314,-0.138L0.316,-0.202C0.317,-0.229 0.329,-0.243 0.352,-0.243C0.375,-0.243 0.387,-0.228 0.387,-0.197C0.387,-0.124 0.378,-0.074 0.359,-0.045C0.334,-0.006 0.292,0.013 0.234,0.013C0.181,0.013 0.143,-0.004 0.12,-0.038C0.103,-0.063 0.095,-0.105 0.095,-0.164L0.095,-0.404C0.095,-0.418 0.089,-0.425 0.076,-0.425L0.044,-0.425C0.033,-0.425 0.025,-0.428 0.018,-0.436C0.011,-0.443 0.007,-0.451 0.007,-0.461C0.007,-0.47 0.011,-0.479 0.018,-0.486C0.025,-0.493 0.032,-0.497 0.041,-0.497L0.08,-0.497C0.091,-0.497 0.097,-0.503 0.097,-0.516L0.097,-0.619C0.097,-0.644 0.11,-0.657 0.136,-0.657C0.16,-0.657 0.172,-0.644 0.172,-0.619L0.172,-0.512C0.172,-0.502 0.178,-0.497 0.19,-0.497L0.299,-0.497C0.324,-0.497 0.337,-0.485 0.337,-0.462C0.337,-0.437 0.323,-0.425 0.296,-0.425L0.186,-0.425C0.177,-0.425 0.172,-0.418 0.172,-0.404L0.172,-0.158C0.172,-0.088 0.195,-0.053 0.241,-0.053C0.288,-0.053 0.312,-0.081 0.314,-0.138Z" style="fill:rgb(89,89,89);fill-rule:nonzero;"/>
                </g>
                <g transform="matrix(61,0,0,61,647.177,905.219)">
                    <path d="M0.25,-0.517C0.295,-0.517 0.332,-0.505 0.362,-0.482L0.362,-0.486C0.362,-0.511 0.373,-0.523 0.394,-0.523C0.416,-0.523 0.427,-0.512 0.427,-0.491C0.427,-0.487 0.426,-0.477 0.425,-0.461C0.422,-0.448 0.421,-0.434 0.421,-0.421C0.421,-0.413 0.422,-0.401 0.425,-0.386C0.427,-0.371 0.428,-0.359 0.428,-0.351C0.428,-0.326 0.417,-0.313 0.395,-0.313C0.374,-0.313 0.363,-0.324 0.362,-0.345L0.361,-0.378C0.36,-0.398 0.349,-0.415 0.327,-0.43C0.304,-0.444 0.278,-0.451 0.248,-0.451C0.217,-0.451 0.192,-0.443 0.171,-0.428C0.15,-0.412 0.14,-0.392 0.14,-0.369C0.14,-0.326 0.169,-0.301 0.228,-0.293L0.286,-0.285C0.399,-0.27 0.456,-0.223 0.456,-0.144C0.456,-0.096 0.438,-0.057 0.401,-0.028C0.364,0.002 0.316,0.017 0.257,0.017C0.202,0.017 0.154,0.001 0.113,-0.03C0.114,-0.023 0.114,-0.017 0.114,-0.011C0.114,0.013 0.103,0.025 0.08,0.025C0.055,0.025 0.043,0.011 0.043,-0.016C0.043,-0.011 0.045,-0.029 0.049,-0.068C0.05,-0.077 0.051,-0.087 0.051,-0.096C0.051,-0.112 0.05,-0.127 0.047,-0.141C0.044,-0.155 0.043,-0.166 0.043,-0.174C0.043,-0.197 0.054,-0.209 0.075,-0.209C0.089,-0.209 0.098,-0.206 0.102,-0.199C0.105,-0.192 0.107,-0.175 0.108,-0.146C0.109,-0.117 0.124,-0.094 0.153,-0.076C0.182,-0.058 0.22,-0.049 0.265,-0.049C0.298,-0.049 0.325,-0.057 0.346,-0.074C0.367,-0.091 0.378,-0.112 0.378,-0.137C0.378,-0.182 0.342,-0.209 0.27,-0.216C0.201,-0.223 0.149,-0.237 0.113,-0.257C0.077,-0.276 0.059,-0.311 0.059,-0.36C0.059,-0.407 0.077,-0.444 0.112,-0.474C0.147,-0.503 0.193,-0.517 0.25,-0.517Z" style="fill:rgb(89,89,89);fill-rule:nonzero;"/>
                </g>
            </g>
            <g transform="matrix(1.02095e-16,-1.66733,1.66733,1.02095e-16,-1423.12,1957.89)">
                <g transform="matrix(50,0,0,50,535.341,1089.96)">
                    <path d="M0.231,-0.385L0.551,-0.385L0.551,-0.532C0.551,-0.582 0.534,-0.607 0.5,-0.607C0.496,-0.607 0.489,-0.606 0.479,-0.604C0.468,-0.602 0.459,-0.601 0.452,-0.601C0.431,-0.601 0.42,-0.612 0.42,-0.634C0.42,-0.658 0.434,-0.67 0.463,-0.67C0.472,-0.67 0.489,-0.668 0.514,-0.664C0.539,-0.66 0.561,-0.658 0.582,-0.658C0.615,-0.658 0.649,-0.66 0.682,-0.665C0.701,-0.668 0.714,-0.669 0.72,-0.669C0.749,-0.669 0.764,-0.657 0.764,-0.634C0.764,-0.613 0.754,-0.602 0.733,-0.602C0.728,-0.602 0.72,-0.603 0.709,-0.605C0.698,-0.606 0.69,-0.607 0.685,-0.607C0.651,-0.607 0.634,-0.582 0.634,-0.532L0.634,-0.133C0.634,-0.083 0.651,-0.058 0.684,-0.058C0.689,-0.058 0.698,-0.059 0.709,-0.061C0.72,-0.062 0.728,-0.063 0.733,-0.063C0.754,-0.063 0.764,-0.052 0.764,-0.031C0.764,-0.007 0.749,0.005 0.72,0.005C0.714,0.005 0.701,0.003 0.681,-0.001C0.658,-0.006 0.632,-0.008 0.605,-0.008C0.568,-0.008 0.537,-0.006 0.512,-0.002C0.483,0.003 0.467,0.005 0.464,0.005C0.435,0.005 0.42,-0.007 0.42,-0.031C0.42,-0.053 0.431,-0.064 0.452,-0.064C0.457,-0.064 0.465,-0.063 0.476,-0.062C0.487,-0.06 0.495,-0.059 0.5,-0.059C0.528,-0.059 0.545,-0.077 0.55,-0.114C0.551,-0.119 0.551,-0.149 0.551,-0.204L0.551,-0.317L0.231,-0.317L0.231,-0.203C0.231,-0.148 0.231,-0.118 0.232,-0.113C0.237,-0.076 0.254,-0.058 0.282,-0.058C0.287,-0.058 0.296,-0.059 0.307,-0.061C0.318,-0.062 0.326,-0.063 0.331,-0.063C0.352,-0.063 0.362,-0.052 0.362,-0.031C0.362,-0.007 0.347,0.005 0.318,0.005C0.313,0.005 0.299,0.003 0.275,-0.001C0.243,-0.006 0.215,-0.009 0.191,-0.009C0.163,-0.009 0.133,-0.006 0.101,-0.001L0.077,0.003C0.069,0.004 0.065,0.005 0.064,0.005C0.033,0.005 0.018,-0.007 0.018,-0.031C0.018,-0.04 0.021,-0.047 0.028,-0.054C0.034,-0.061 0.041,-0.064 0.05,-0.064C0.056,-0.064 0.065,-0.063 0.077,-0.061C0.084,-0.059 0.091,-0.058 0.098,-0.058C0.132,-0.058 0.149,-0.083 0.149,-0.133L0.149,-0.534C0.149,-0.584 0.132,-0.609 0.098,-0.609C0.093,-0.609 0.086,-0.608 0.076,-0.606C0.066,-0.604 0.057,-0.603 0.05,-0.603C0.041,-0.603 0.034,-0.606 0.028,-0.613C0.021,-0.62 0.018,-0.627 0.018,-0.636C0.018,-0.659 0.033,-0.671 0.064,-0.671C0.07,-0.671 0.082,-0.669 0.101,-0.666C0.126,-0.661 0.157,-0.659 0.194,-0.659C0.208,-0.659 0.229,-0.661 0.257,-0.665C0.284,-0.669 0.305,-0.671 0.318,-0.671C0.347,-0.671 0.362,-0.659 0.362,-0.635C0.362,-0.626 0.359,-0.618 0.353,-0.612C0.347,-0.605 0.34,-0.602 0.331,-0.602C0.324,-0.602 0.315,-0.603 0.304,-0.605C0.293,-0.607 0.286,-0.608 0.282,-0.608C0.249,-0.608 0.233,-0.583 0.232,-0.533L0.231,-0.385Z" style="fill:rgb(89,89,89);fill-rule:nonzero;"/>
                </g>
                <g transform="matrix(50,0,0,50,574.491,1089.96)">
                    <path d="M0.469,0.013C0.414,0.013 0.381,-0.011 0.368,-0.058C0.334,-0.008 0.281,0.017 0.208,0.017C0.154,0.017 0.111,0.004 0.079,-0.023C0.046,-0.05 0.03,-0.085 0.03,-0.13C0.03,-0.185 0.054,-0.226 0.101,-0.252C0.119,-0.262 0.134,-0.269 0.148,-0.272C0.161,-0.275 0.187,-0.278 0.226,-0.283C0.282,-0.289 0.319,-0.297 0.336,-0.308C0.353,-0.319 0.361,-0.338 0.361,-0.367C0.361,-0.394 0.352,-0.416 0.333,-0.432C0.314,-0.447 0.287,-0.455 0.253,-0.455C0.223,-0.455 0.195,-0.447 0.169,-0.43C0.159,-0.423 0.154,-0.416 0.154,-0.409C0.154,-0.406 0.157,-0.403 0.163,-0.399C0.172,-0.392 0.177,-0.381 0.177,-0.365C0.177,-0.352 0.172,-0.341 0.163,-0.332C0.153,-0.323 0.141,-0.319 0.126,-0.319C0.109,-0.319 0.094,-0.325 0.083,-0.337C0.071,-0.349 0.065,-0.364 0.065,-0.381C0.065,-0.418 0.084,-0.45 0.121,-0.477C0.158,-0.504 0.202,-0.517 0.255,-0.517C0.376,-0.517 0.437,-0.459 0.437,-0.342L0.437,-0.14C0.437,-0.108 0.438,-0.089 0.439,-0.083C0.443,-0.06 0.454,-0.048 0.473,-0.048C0.496,-0.048 0.508,-0.069 0.508,-0.112L0.508,-0.161C0.508,-0.182 0.518,-0.193 0.539,-0.193C0.561,-0.193 0.572,-0.177 0.572,-0.145L0.572,-0.14L0.571,-0.083C0.57,-0.019 0.536,0.013 0.469,0.013ZM0.358,-0.186L0.359,-0.257C0.344,-0.244 0.329,-0.234 0.313,-0.229C0.296,-0.224 0.267,-0.219 0.225,-0.215C0.149,-0.208 0.111,-0.18 0.111,-0.131C0.111,-0.106 0.12,-0.086 0.139,-0.071C0.157,-0.056 0.182,-0.049 0.213,-0.049C0.258,-0.049 0.293,-0.061 0.319,-0.086C0.344,-0.11 0.357,-0.143 0.358,-0.186Z" style="fill:rgb(89,89,89);fill-rule:nonzero;"/>
                </g>
                <g transform="matrix(50,0,0,50,602.691,1089.96)">
                    <path d="M0.195,-0.418L0.196,-0.107C0.197,-0.073 0.206,-0.056 0.223,-0.056C0.227,-0.056 0.235,-0.058 0.248,-0.061C0.256,-0.062 0.261,-0.063 0.264,-0.063C0.286,-0.063 0.297,-0.052 0.297,-0.029C0.297,-0.007 0.283,0.004 0.256,0.004C0.245,0.004 0.228,0.003 0.205,-0C0.182,-0.003 0.164,-0.004 0.151,-0.004C0.14,-0.004 0.124,-0.003 0.103,-0C0.082,0.003 0.066,0.004 0.056,0.004L0.051,0.004C0.023,0.004 0.009,-0.008 0.009,-0.032C0.009,-0.053 0.02,-0.063 0.043,-0.063L0.05,-0.063C0.054,-0.062 0.057,-0.062 0.059,-0.062C0.076,-0.059 0.085,-0.058 0.088,-0.058C0.1,-0.058 0.108,-0.063 0.111,-0.074C0.114,-0.084 0.115,-0.111 0.116,-0.154L0.117,-0.224L0.12,-0.379L0.119,-0.557C0.118,-0.577 0.117,-0.59 0.116,-0.597C0.111,-0.612 0.102,-0.62 0.088,-0.62C0.086,-0.62 0.077,-0.619 0.062,-0.616C0.055,-0.615 0.049,-0.614 0.044,-0.614C0.021,-0.614 0.01,-0.625 0.01,-0.646C0.01,-0.668 0.023,-0.679 0.05,-0.679C0.057,-0.679 0.064,-0.679 0.069,-0.678L0.093,-0.675C0.104,-0.674 0.113,-0.673 0.12,-0.673C0.127,-0.673 0.137,-0.674 0.15,-0.677C0.163,-0.679 0.173,-0.68 0.18,-0.68C0.195,-0.68 0.203,-0.67 0.203,-0.651C0.203,-0.644 0.203,-0.639 0.202,-0.636C0.197,-0.585 0.195,-0.512 0.195,-0.418Z" style="fill:rgb(89,89,89);fill-rule:nonzero;"/>
                </g>
                <g transform="matrix(50,0,0,50,618.141,1089.96)">
                    <path d="M0.469,0.013C0.414,0.013 0.381,-0.011 0.368,-0.058C0.334,-0.008 0.281,0.017 0.208,0.017C0.154,0.017 0.111,0.004 0.079,-0.023C0.046,-0.05 0.03,-0.085 0.03,-0.13C0.03,-0.185 0.054,-0.226 0.101,-0.252C0.119,-0.262 0.134,-0.269 0.148,-0.272C0.161,-0.275 0.187,-0.278 0.226,-0.283C0.282,-0.289 0.319,-0.297 0.336,-0.308C0.353,-0.319 0.361,-0.338 0.361,-0.367C0.361,-0.394 0.352,-0.416 0.333,-0.432C0.314,-0.447 0.287,-0.455 0.253,-0.455C0.223,-0.455 0.195,-0.447 0.169,-0.43C0.159,-0.423 0.154,-0.416 0.154,-0.409C0.154,-0.406 0.157,-0.403 0.163,-0.399C0.172,-0.392 0.177,-0.381 0.177,-0.365C0.177,-0.352 0.172,-0.341 0.163,-0.332C0.153,-0.323 0.141,-0.319 0.126,-0.319C0.109,-0.319 0.094,-0.325 0.083,-0.337C0.071,-0.349 0.065,-0.364 0.065,-0.381C0.065,-0.418 0.084,-0.45 0.121,-0.477C0.158,-0.504 0.202,-0.517 0.255,-0.517C0.376,-0.517 0.437,-0.459 0.437,-0.342L0.437,-0.14C0.437,-0.108 0.438,-0.089 0.439,-0.083C0.443,-0.06 0.454,-0.048 0.473,-0.048C0.496,-0.048 0.508,-0.069 0.508,-0.112L0.508,-0.161C0.508,-0.182 0.518,-0.193 0.539,-0.193C0.561,-0.193 0.572,-0.177 0.572,-0.145L0.572,-0.14L0.571,-0.083C0.57,-0.019 0.536,0.013 0.469,0.013ZM0.358,-0.186L0.359,-0.257C0.344,-0.244 0.329,-0.234 0.313,-0.229C0.296,-0.224 0.267,-0.219 0.225,-0.215C0.149,-0.208 0.111,-0.18 0.111,-0.131C0.111,-0.106 0.12,-0.086 0.139,-0.071C0.157,-0.056 0.182,-0.049 0.213,-0.049C0.258,-0.049 0.293,-0.061 0.319,-0.086C0.344,-0.11 0.357,-0.143 0.358,-0.186Z" style="fill:rgb(89,89,89);fill-rule:nonzero;"/>
                </g>
                <g transform="matrix(50,0,0,50,646.341,1089.96)">
                    <path d="M0.195,-0.418L0.196,-0.107C0.197,-0.073 0.206,-0.056 0.223,-0.056C0.227,-0.056 0.235,-0.058 0.248,-0.061C0.256,-0.062 0.261,-0.063 0.264,-0.063C0.286,-0.063 0.297,-0.052 0.297,-0.029C0.297,-0.007 0.283,0.004 0.256,0.004C0.245,0.004 0.228,0.003 0.205,-0C0.182,-0.003 0.164,-0.004 0.151,-0.004C0.14,-0.004 0.124,-0.003 0.103,-0C0.082,0.003 0.066,0.004 0.056,0.004L0.051,0.004C0.023,0.004 0.009,-0.008 0.009,-0.032C0.009,-0.053 0.02,-0.063 0.043,-0.063L0.05,-0.063C0.054,-0.062 0.057,-0.062 0.059,-0.062C0.076,-0.059 0.085,-0.058 0.088,-0.058C0.1,-0.058 0.108,-0.063 0.111,-0.074C0.114,-0.084 0.115,-0.111 0.116,-0.154L0.117,-0.224L0.12,-0.379L0.119,-0.557C0.118,-0.577 0.117,-0.59 0.116,-0.597C0.111,-0.612 0.102,-0.62 0.088,-0.62C0.086,-0.62 0.077,-0.619 0.062,-0.616C0.055,-0.615 0.049,-0.614 0.044,-0.614C0.021,-0.614 0.01,-0.625 0.01,-0.646C0.01,-0.668 0.023,-0.679 0.05,-0.679C0.057,-0.679 0.064,-0.679 0.069,-0.678L0.093,-0.675C0.104,-0.674 0.113,-0.673 0.12,-0.673C0.127,-0.673 0.137,-0.674 0.15,-0.677C0.163,-0.679 0.173,-0.68 0.18,-0.68C0.195,-0.68 0.203,-0.67 0.203,-0.651C0.203,-0.644 0.203,-0.639 0.202,-0.636C0.197,-0.585 0.195,-0.512 0.195,-0.418Z" style="fill:rgb(89,89,89);fill-rule:nonzero;"/>
                </g>
            </g>
            <g transform="matrix(5.21485,0,0,5.21485,618.679,1058.07)">
                <g transform="matrix(50,0,0,50,-23.975,0)">
                    <path d="M0.151,0.013C0.138,0.013 0.132,0.006 0.132,-0.009L0.132,-0.021C0.133,-0.024 0.133,-0.027 0.133,-0.031L0.133,-0.036L0.115,-0.157C0.11,-0.182 0.107,-0.201 0.106,-0.212C0.1,-0.259 0.094,-0.311 0.087,-0.368C0.082,-0.413 0.072,-0.488 0.059,-0.592L0.056,-0.615C0.046,-0.69 0.039,-0.732 0.034,-0.739C0.036,-0.742 0.039,-0.745 0.043,-0.748C0.047,-0.751 0.051,-0.752 0.055,-0.752C0.065,-0.752 0.072,-0.75 0.076,-0.747C0.079,-0.744 0.081,-0.738 0.081,-0.729L0.081,-0.699C0.102,-0.481 0.123,-0.277 0.146,-0.087L0.148,-0.087C0.15,-0.106 0.154,-0.159 0.16,-0.246L0.162,-0.275C0.167,-0.36 0.169,-0.404 0.17,-0.409C0.172,-0.429 0.176,-0.458 0.182,-0.497L0.194,-0.578L0.197,-0.624C0.198,-0.632 0.198,-0.639 0.199,-0.645C0.199,-0.65 0.199,-0.654 0.2,-0.657L0.201,-0.67C0.201,-0.671 0.202,-0.672 0.203,-0.673C0.204,-0.674 0.205,-0.676 0.207,-0.677C0.216,-0.677 0.222,-0.675 0.225,-0.67C0.227,-0.668 0.228,-0.666 0.229,-0.664C0.23,-0.661 0.23,-0.658 0.23,-0.655C0.231,-0.649 0.232,-0.646 0.232,-0.646C0.239,-0.611 0.253,-0.519 0.275,-0.37C0.297,-0.221 0.31,-0.123 0.315,-0.076L0.318,-0.074L0.355,-0.479C0.356,-0.504 0.361,-0.544 0.368,-0.599C0.375,-0.654 0.378,-0.699 0.378,-0.734L0.377,-0.744L0.377,-0.753C0.377,-0.762 0.379,-0.768 0.383,-0.772C0.387,-0.775 0.394,-0.777 0.403,-0.777C0.407,-0.777 0.411,-0.775 0.416,-0.772C0.42,-0.769 0.422,-0.765 0.422,-0.761C0.422,-0.754 0.418,-0.748 0.411,-0.742C0.412,-0.741 0.412,-0.739 0.412,-0.736C0.412,-0.732 0.412,-0.728 0.411,-0.724C0.41,-0.719 0.409,-0.716 0.408,-0.714C0.401,-0.654 0.392,-0.566 0.381,-0.449L0.361,-0.242L0.353,-0.163L0.341,-0.062L0.336,-0.011C0.336,-0.003 0.335,0.003 0.333,0.007C0.33,0.011 0.325,0.013 0.318,0.013C0.307,0.013 0.301,0.009 0.299,0.001C0.298,-0.003 0.296,-0.012 0.295,-0.027L0.294,-0.042C0.278,-0.145 0.254,-0.327 0.222,-0.59L0.219,-0.592L0.218,-0.591L0.218,-0.59L0.168,-0.044L0.168,-0.026C0.168,0 0.162,0.013 0.151,0.013Z" style="fill:rgb(240,105,152);fill-rule:nonzero;"/>
                </g>
                <g transform="matrix(50,0,0,50,-0.925,0)">
                    <path d="M0.114,0.006C0.098,0.006 0.087,0.005 0.081,0.002C0.074,-0.002 0.071,-0.007 0.071,-0.016L0.071,-0.035C0.07,-0.04 0.07,-0.046 0.07,-0.053L0.071,-0.201L0.07,-0.614C0.07,-0.657 0.069,-0.694 0.068,-0.725C0.068,-0.733 0.07,-0.74 0.073,-0.745C0.076,-0.75 0.081,-0.753 0.086,-0.753L0.148,-0.753C0.157,-0.753 0.164,-0.752 0.169,-0.751C0.176,-0.749 0.179,-0.743 0.179,-0.734C0.179,-0.729 0.177,-0.724 0.173,-0.721C0.169,-0.718 0.165,-0.716 0.16,-0.715L0.143,-0.715L0.111,-0.717C0.106,-0.717 0.103,-0.716 0.102,-0.715C0.1,-0.713 0.099,-0.71 0.099,-0.705C0.099,-0.674 0.099,-0.645 0.1,-0.62L0.1,-0.41C0.1,-0.409 0.101,-0.408 0.102,-0.408L0.104,-0.408C0.121,-0.409 0.139,-0.41 0.158,-0.41C0.169,-0.41 0.174,-0.405 0.174,-0.396C0.174,-0.389 0.173,-0.385 0.171,-0.383C0.168,-0.38 0.164,-0.379 0.159,-0.379L0.102,-0.379C0.099,-0.379 0.098,-0.377 0.098,-0.374L0.1,-0.226C0.101,-0.18 0.102,-0.127 0.102,-0.067L0.102,-0.03L0.196,-0.03C0.208,-0.03 0.214,-0.026 0.214,-0.017C0.214,-0.006 0.211,0 0.205,0.002C0.197,0.005 0.181,0.006 0.156,0.006L0.114,0.006Z" style="fill:rgb(240,105,152);fill-rule:nonzero;"/>
                </g>
                <g transform="matrix(50,0,0,50,11.525,0)">
                    <path d="M0.114,0.006C0.098,0.006 0.087,0.005 0.081,0.002C0.074,-0.002 0.071,-0.007 0.071,-0.016L0.071,-0.035C0.07,-0.04 0.07,-0.046 0.07,-0.053L0.071,-0.201L0.07,-0.614C0.07,-0.657 0.069,-0.694 0.068,-0.725C0.068,-0.733 0.07,-0.74 0.073,-0.745C0.076,-0.75 0.081,-0.753 0.086,-0.753L0.148,-0.753C0.157,-0.753 0.164,-0.752 0.169,-0.751C0.176,-0.749 0.179,-0.743 0.179,-0.734C0.179,-0.729 0.177,-0.724 0.173,-0.721C0.169,-0.718 0.165,-0.716 0.16,-0.715L0.143,-0.715L0.111,-0.717C0.106,-0.717 0.103,-0.716 0.102,-0.715C0.1,-0.713 0.099,-0.71 0.099,-0.705C0.099,-0.674 0.099,-0.645 0.1,-0.62L0.1,-0.41C0.1,-0.409 0.101,-0.408 0.102,-0.408L0.104,-0.408C0.121,-0.409 0.139,-0.41 0.158,-0.41C0.169,-0.41 0.174,-0.405 0.174,-0.396C0.174,-0.389 0.173,-0.385 0.171,-0.383C0.168,-0.38 0.164,-0.379 0.159,-0.379L0.102,-0.379C0.099,-0.379 0.098,-0.377 0.098,-0.374L0.1,-0.226C0.101,-0.18 0.102,-0.127 0.102,-0.067L0.102,-0.03L0.196,-0.03C0.208,-0.03 0.214,-0.026 0.214,-0.017C0.214,-0.006 0.211,0 0.205,0.002C0.197,0.005 0.181,0.006 0.156,0.006L0.114,0.006Z" style="fill:rgb(240,105,152);fill-rule:nonzero;"/>
                </g>
            </g>
            <g transform="matrix(7.40043,1.49565,-1.49565,7.40043,976.735,1126.35)">
                <g transform="matrix(50,0,0,50,-7.975,0)">
                    <path d="M0.165,0.006C0.158,0.006 0.153,0.004 0.15,-0.002C0.147,-0.007 0.145,-0.013 0.145,-0.02L0.145,-0.198L0.143,-0.358C0.141,-0.429 0.14,-0.483 0.14,-0.518L0.141,-0.547L0.141,-0.612C0.141,-0.684 0.14,-0.72 0.139,-0.72L0.026,-0.72C0.021,-0.72 0.016,-0.721 0.012,-0.724C0.007,-0.727 0.005,-0.73 0.005,-0.735C0.005,-0.74 0.006,-0.744 0.008,-0.746C0.01,-0.748 0.015,-0.75 0.024,-0.751C0.033,-0.753 0.047,-0.754 0.064,-0.754L0.164,-0.754L0.274,-0.755C0.282,-0.755 0.288,-0.754 0.291,-0.751C0.294,-0.748 0.295,-0.744 0.295,-0.738C0.295,-0.728 0.289,-0.723 0.276,-0.723L0.187,-0.723L0.178,-0.722L0.179,-0.664L0.179,-0.097L0.18,-0.021C0.18,-0.016 0.18,-0.011 0.179,-0.008C0.178,-0.004 0.177,-0.001 0.175,0.001C0.173,0.004 0.17,0.006 0.165,0.006Z" style="fill:rgb(240,105,152);fill-rule:nonzero;"/>
                </g>
            </g>
            <g transform="matrix(2.00599,0,0,2.00599,456.228,1219.12)">
                <g transform="matrix(260.742,0,0,260.742,-39.5025,0)">
                    <path d="M0.115,0.022C0.103,0.022 0.094,0.022 0.088,0.021C0.081,0.02 0.074,0.017 0.067,0.014C0.059,0.01 0.053,0.004 0.049,-0.003C0.049,-0.011 0.053,-0.015 0.06,-0.015C0.067,-0.015 0.077,-0.013 0.088,-0.008C0.099,-0.003 0.108,-0 0.115,-0C0.13,-0 0.143,-0.006 0.156,-0.018C0.168,-0.03 0.177,-0.046 0.184,-0.065C0.197,-0.103 0.204,-0.137 0.204,-0.166C0.204,-0.199 0.199,-0.232 0.19,-0.265C0.181,-0.298 0.168,-0.33 0.153,-0.359C0.15,-0.366 0.144,-0.377 0.136,-0.392C0.119,-0.425 0.107,-0.451 0.098,-0.47C0.089,-0.489 0.082,-0.509 0.075,-0.532C0.066,-0.562 0.061,-0.594 0.061,-0.629C0.061,-0.651 0.065,-0.672 0.072,-0.693C0.079,-0.713 0.09,-0.73 0.105,-0.745C0.122,-0.76 0.14,-0.768 0.161,-0.768C0.169,-0.768 0.179,-0.765 0.19,-0.759C0.201,-0.752 0.207,-0.746 0.207,-0.74C0.207,-0.735 0.205,-0.732 0.201,-0.732C0.197,-0.732 0.192,-0.734 0.185,-0.737C0.179,-0.74 0.173,-0.742 0.168,-0.742C0.153,-0.742 0.139,-0.736 0.128,-0.725C0.116,-0.714 0.107,-0.7 0.102,-0.683C0.097,-0.669 0.095,-0.654 0.095,-0.637C0.095,-0.611 0.098,-0.584 0.105,-0.557C0.112,-0.529 0.121,-0.503 0.132,-0.479L0.167,-0.406L0.177,-0.385C0.191,-0.356 0.202,-0.333 0.21,-0.314C0.217,-0.295 0.224,-0.274 0.229,-0.251C0.236,-0.22 0.24,-0.19 0.24,-0.161C0.24,-0.122 0.23,-0.083 0.21,-0.043C0.2,-0.024 0.187,-0.008 0.17,0.004C0.153,0.016 0.135,0.022 0.115,0.022Z" style="fill:rgb(240,105,152);fill-rule:nonzero;"/>
                </g>
            </g>
        </g>
        <g transform="matrix(0.590551,0,0,0.590551,-38.2116,30.1981)">
            <g transform="matrix(83.3333,0,0,83.3333,1005.74,398.246)">
                <path d="M0.357,-0.132C0.357,-0.082 0.374,-0.057 0.408,-0.057C0.413,-0.057 0.421,-0.058 0.432,-0.06C0.443,-0.061 0.451,-0.062 0.456,-0.062C0.465,-0.062 0.472,-0.059 0.479,-0.053C0.485,-0.046 0.488,-0.039 0.488,-0.03C0.488,-0.007 0.473,0.005 0.443,0.005L0.437,0.005C0.434,0.004 0.431,0.004 0.43,0.004L0.381,-0.003C0.362,-0.006 0.341,-0.007 0.318,-0.007C0.293,-0.007 0.27,-0.006 0.251,-0.003L0.201,0.004C0.199,0.004 0.197,0.004 0.194,0.005L0.187,0.005C0.158,0.005 0.143,-0.007 0.143,-0.03C0.143,-0.051 0.154,-0.062 0.175,-0.062C0.18,-0.062 0.188,-0.061 0.199,-0.06C0.21,-0.058 0.218,-0.057 0.223,-0.057C0.256,-0.057 0.273,-0.082 0.273,-0.132L0.273,-0.202L0.274,-0.29L0.274,-0.375L0.273,-0.538C0.273,-0.585 0.249,-0.609 0.2,-0.609L0.169,-0.609C0.121,-0.609 0.097,-0.586 0.097,-0.539C0.097,-0.522 0.097,-0.511 0.098,-0.505L0.102,-0.468C0.103,-0.462 0.103,-0.454 0.103,-0.443C0.103,-0.401 0.09,-0.38 0.064,-0.38C0.039,-0.38 0.027,-0.395 0.027,-0.426C0.027,-0.435 0.028,-0.45 0.029,-0.471C0.031,-0.503 0.032,-0.523 0.032,-0.532C0.032,-0.549 0.031,-0.566 0.03,-0.584C0.027,-0.619 0.026,-0.634 0.026,-0.629C0.026,-0.657 0.039,-0.671 0.064,-0.671C0.073,-0.671 0.095,-0.67 0.129,-0.668C0.132,-0.668 0.16,-0.667 0.211,-0.666L0.325,-0.664C0.338,-0.664 0.374,-0.665 0.432,-0.666C0.445,-0.666 0.466,-0.667 0.497,-0.669C0.524,-0.671 0.546,-0.672 0.561,-0.672C0.594,-0.672 0.611,-0.658 0.611,-0.631L0.611,-0.629C0.611,-0.622 0.61,-0.61 0.609,-0.592C0.607,-0.574 0.605,-0.555 0.603,-0.534L0.603,-0.523C0.603,-0.513 0.604,-0.497 0.606,-0.476C0.609,-0.448 0.61,-0.431 0.61,-0.424C0.61,-0.397 0.597,-0.383 0.571,-0.383C0.546,-0.383 0.533,-0.4 0.533,-0.433C0.533,-0.445 0.534,-0.463 0.536,-0.487C0.538,-0.51 0.539,-0.528 0.539,-0.54C0.539,-0.586 0.513,-0.609 0.46,-0.609L0.432,-0.609C0.407,-0.609 0.39,-0.604 0.379,-0.594C0.368,-0.583 0.362,-0.566 0.361,-0.542L0.358,-0.472L0.357,-0.132Z" style="fill:rgb(89,89,89);fill-rule:nonzero;"/>
            </g>
            <g transform="matrix(83.3333,0,0,83.3333,1058.83,398.246)">
                <path d="M0.319,-0.596L0.473,-0.09L0.642,-0.629C0.651,-0.657 0.666,-0.671 0.687,-0.671L0.692,-0.671C0.699,-0.671 0.707,-0.67 0.718,-0.668C0.731,-0.665 0.74,-0.663 0.744,-0.663C0.755,-0.662 0.769,-0.661 0.788,-0.661C0.808,-0.661 0.824,-0.662 0.835,-0.664L0.87,-0.67C0.872,-0.671 0.876,-0.671 0.882,-0.671C0.913,-0.671 0.928,-0.659 0.928,-0.636C0.928,-0.615 0.917,-0.604 0.896,-0.604C0.891,-0.604 0.883,-0.605 0.873,-0.607C0.862,-0.608 0.854,-0.609 0.849,-0.609C0.815,-0.609 0.798,-0.584 0.798,-0.534L0.798,-0.464L0.797,-0.376L0.797,-0.291L0.798,-0.133C0.798,-0.083 0.815,-0.058 0.848,-0.058C0.855,-0.058 0.862,-0.059 0.87,-0.061C0.885,-0.062 0.893,-0.063 0.896,-0.063C0.917,-0.063 0.928,-0.052 0.928,-0.031C0.928,-0.007 0.914,0.005 0.885,0.005C0.886,0.005 0.881,0.004 0.87,0.003C0.824,-0.002 0.785,-0.005 0.753,-0.005C0.722,-0.005 0.692,-0.003 0.663,0.002C0.651,0.004 0.64,0.005 0.631,0.005C0.605,0.005 0.592,-0.006 0.592,-0.028C0.592,-0.051 0.605,-0.062 0.632,-0.062C0.639,-0.062 0.644,-0.062 0.647,-0.061C0.662,-0.06 0.67,-0.059 0.673,-0.059C0.697,-0.059 0.712,-0.084 0.718,-0.134C0.719,-0.145 0.72,-0.179 0.72,-0.236C0.72,-0.258 0.72,-0.29 0.721,-0.332L0.723,-0.422L0.723,-0.599C0.723,-0.603 0.721,-0.605 0.718,-0.605C0.716,-0.605 0.714,-0.603 0.712,-0.599L0.528,-0.028C0.52,-0.003 0.501,0.01 0.472,0.01C0.455,0.01 0.442,0.008 0.434,0.003C0.425,-0.003 0.419,-0.013 0.414,-0.028L0.233,-0.599C0.231,-0.603 0.229,-0.605 0.226,-0.605C0.223,-0.605 0.222,-0.603 0.222,-0.599L0.228,-0.134C0.229,-0.085 0.242,-0.061 0.268,-0.061C0.275,-0.061 0.285,-0.062 0.298,-0.065L0.31,-0.065C0.336,-0.065 0.349,-0.053 0.349,-0.03C0.349,-0.007 0.336,0.005 0.309,0.005C0.304,0.005 0.297,0.004 0.288,0.003C0.273,0.001 0.258,-0.001 0.241,-0.004C0.228,-0.006 0.211,-0.007 0.19,-0.007C0.153,-0.007 0.13,-0.006 0.119,-0.004L0.077,0.004C0.076,0.004 0.074,0.004 0.071,0.005L0.065,0.005C0.034,0.005 0.019,-0.007 0.019,-0.03C0.019,-0.039 0.022,-0.047 0.028,-0.054C0.034,-0.06 0.041,-0.063 0.05,-0.063C0.057,-0.063 0.066,-0.062 0.076,-0.06C0.086,-0.058 0.093,-0.057 0.098,-0.057C0.132,-0.057 0.149,-0.082 0.149,-0.132L0.149,-0.534C0.149,-0.584 0.132,-0.609 0.098,-0.609C0.093,-0.609 0.085,-0.608 0.074,-0.607C0.063,-0.605 0.055,-0.604 0.05,-0.604C0.029,-0.604 0.019,-0.615 0.019,-0.636C0.019,-0.659 0.034,-0.671 0.064,-0.671C0.067,-0.671 0.071,-0.671 0.077,-0.67L0.112,-0.666C0.129,-0.664 0.146,-0.663 0.161,-0.663C0.174,-0.663 0.191,-0.664 0.213,-0.667C0.234,-0.67 0.25,-0.671 0.26,-0.671C0.286,-0.671 0.303,-0.655 0.312,-0.622L0.319,-0.596Z" style="fill:rgb(89,89,89);fill-rule:nonzero;"/>
            </g>
        </g>
        <g transform="matrix(0.589335,0,0,0.589335,432.962,346.88)">
            <g transform="matrix(1,0,0,1,-131.13,-132.733)">
                <clipPath id="_clip1">
                    <rect x="0" y="0" width="262.26" height="265.466"/>
                </clipPath>
                <g clip-path="url(#_clip1)">
                    <g transform="matrix(-0.682487,0,0,0.682487,554.704,-300.341)">
                        <g id="logo">
                            <g id="sweet-charm" serif:id="sweet charm">
                                <path d="M637.97,776.125C643.559,775.911 649.214,775.932 654.698,774.835C675.756,770.625 692.278,755.709 707.988,742.195C715.029,736.139 722.294,730.3 728.802,723.675C747.762,704.369 768.335,677.738 762.984,648.466C758.872,625.967 743.375,611.634 728.802,595.498C704.609,568.708 693.004,556.256 665.736,532.734C653.867,522.496 639.871,508.085 624.038,503.134C608.717,498.343 593.165,504.91 579.385,511.073C552.457,523.114 531.648,542.838 512.818,565.103C498.333,582.23 485.387,603.171 487.727,626.667C490.231,651.816 507.479,671.649 523.619,689.571C551.814,720.877 581.231,752.671 619.538,771.767" style="fill:rgb(240,105,152);"/>
                                <g transform="matrix(-1.46523,0,0,1.46523,1757.27,-198.723)">
                                    <path d="M776.657,492.042C776.657,492.042 779.77,490.247 786.916,492.021C795.797,494.226 804.285,500.533 804.285,500.533" style="fill:none;stroke:rgb(247,177,202);stroke-width:10.42px;"/>
                                </g>
                                <path d="M496.281,616.208C512.209,606.19 554.196,579.553 582.59,565.527C609.63,552.171 666.648,532.053 666.648,532.053L707.002,572.766C707.002,572.766 688.932,577.268 680.368,580.832C662.974,588.073 624.819,604.558 602.637,616.208C583.382,626.32 562.334,640.911 547.274,650.731C535.363,658.498 512.277,675.127 512.277,675.127L496.281,650.731L487.023,625.632C487.023,625.632 492.554,618.552 496.281,616.208Z" style="fill:rgb(182,220,223);"/>
                                <g transform="matrix(1,0,0,1,72.3602,81.3694)">
                                    <path d="M501.657,616.208C501.657,616.208 553.974,579.468 582.59,565.527C611.509,551.44 675.168,531.682 675.168,531.682L694.898,576.242C694.898,576.242 682.002,583.768 675.168,586.728C659.791,593.389 623.952,605.541 602.637,616.208C583.188,625.941 561.36,641.713 547.274,650.731C537.416,657.042 518.124,670.313 518.124,670.313C518.124,670.313 502.888,656.355 496.281,650.731C490.509,645.817 478.485,636.569 478.485,636.569L501.657,616.208Z" style="fill:rgb(182,220,223);"/>
                                </g>
                                <g transform="matrix(1,0,0,1,-3,-4)">
                                    <path d="M503.775,583.573C489.244,580.359 474.312,577.056 461.289,569.853C452.634,565.065 427.063,551.192 439.359,531.199C450.844,512.524 468.64,540.617 477.902,531.842C486.436,523.757 451.738,502.913 480.87,485.397C504.588,471.136 507.771,506.857 516.816,496.859C525.829,486.896 508.349,459.946 524.901,448.648C539.284,438.83 556.119,460.458 563.921,479.622C567.728,488.974 565.819,516.592 568.241,523.209" style="fill:rgb(240,105,152);"/>
                                </g>
                                <g transform="matrix(1,0,0,1,-3,-4)">
                                    <path d="M503.775,583.573C489.244,580.359 474.312,577.056 461.289,569.853C452.634,565.065 427.063,551.192 439.359,531.199C450.844,512.524 468.64,540.617 477.902,531.842C486.436,523.757 451.738,502.913 480.87,485.397C504.588,471.136 507.771,506.857 516.816,496.859C525.829,486.896 505.351,464.759 521.993,453.593C542.352,439.933 553.713,457.203 559.674,473.489" style="fill:none;stroke:rgb(89,89,89);stroke-width:9.16px;"/>
                                </g>
                                <g transform="matrix(1,0,0,1,-3,-4)">
                                    <path d="M566.488,491.22C568.629,507.17 567.769,495.158 568.241,519.558" style="fill:white;stroke:rgb(89,89,89);stroke-width:9.16px;"/>
                                </g>
                                <path d="M683.986,764.976C687.71,785.767 688.968,819.635 716.127,823.656C723.307,824.718 736.734,826.249 740.379,816.952C741.787,813.362 739.873,807.879 738.852,804.59C736.107,795.751 735.019,795.011 733.895,785.746C733.645,783.679 733.925,778.994 736.022,777.535C737.303,776.645 741.252,778.651 742.1,779.272C745.286,781.605 765.143,792.369 772.617,787.147C780.403,781.707 774.876,771.871 771.254,765.079C769.205,761.236 757.929,749.951 763.846,744.738C770.646,738.746 798.748,760.833 807.274,736.434C814.814,714.859 773.858,700.673 753.695,699.032" style="fill:rgb(240,105,152);"/>
                                <path d="M683.986,764.976C687.71,785.767 688.968,819.635 716.127,823.656C723.307,824.718 736.734,826.249 740.379,816.952C741.787,813.362 739.873,807.879 738.852,804.59C736.107,795.751 735.019,795.011 733.895,785.746C733.645,783.679 733.925,778.994 736.022,777.535C737.303,776.645 741.252,778.651 742.1,779.272C745.286,781.605 765.143,792.369 772.617,787.147C780.403,781.707 774.876,771.871 771.254,765.079C769.205,761.236 757.929,749.951 763.846,744.738C770.646,738.746 798.748,760.833 807.274,736.434C814.814,714.859 773.858,700.673 753.695,699.032" style="fill:none;stroke:rgb(89,89,89);stroke-width:9.16px;"/>
                                <path d="M662.218,533.336C596.175,552.54 529.119,590.528 488.422,624.017" style="fill:none;stroke:white;stroke-width:5.8px;"/>
                                <g transform="matrix(1.06927,0,0,1.11537,-6.00826,-22.0435)">
                                    <path d="M662.218,533.336C596.175,552.54 529.119,590.528 488.422,624.017" style="fill:none;stroke:white;stroke-width:4.47px;"/>
                                </g>
                                <g transform="matrix(1.08369,0,0,1.11941,24.4395,16.4574)">
                                    <path d="M662.218,533.336C596.175,552.54 529.119,590.528 488.422,624.017" style="fill:none;stroke:white;stroke-width:5.26px;"/>
                                </g>
                                <g transform="matrix(0.96199,0,0,0.965252,121.336,150.649)">
                                    <path d="M662.218,533.336C596.175,552.54 529.119,590.528 488.422,624.017" style="fill:none;stroke:white;stroke-width:6.02px;"/>
                                </g>
                                <path d="M637.97,776.125C643.559,775.911 649.214,775.932 654.698,774.835C675.756,770.625 692.278,755.709 707.988,742.195C715.029,736.139 722.294,730.3 728.802,723.675C747.762,704.369 768.335,677.738 762.984,648.466C758.872,625.967 743.375,611.634 728.802,595.498C704.609,568.708 693.004,556.256 665.736,532.734C653.867,522.496 639.871,508.085 624.038,503.134C608.717,498.343 593.165,504.91 579.385,511.073C552.457,523.114 531.648,542.838 512.818,565.103C498.333,582.23 485.387,603.171 487.727,626.667C490.231,651.816 507.479,671.649 523.619,689.571C551.814,720.877 581.231,752.671 619.538,771.767" style="fill:none;stroke:rgb(89,89,89);stroke-width:9.16px;"/>
                                <g id="face" transform="matrix(1,0,0,1,7.11275,-9.00721)">
                                    <g transform="matrix(1.06958,0,0,1.06958,-47.5827,-29.2602)">
                                        <circle cx="565.708" cy="596.728" r="6.754" style="fill:rgb(64,64,64);"/>
                                    </g>
                                    <g transform="matrix(1.06958,0,0,1.24826,17.1126,-163.62)">
                                        <circle cx="565.708" cy="596.728" r="6.754" style="fill:rgb(64,64,64);"/>
                                    </g>
                                    <g transform="matrix(1.06958,0,0,1.06958,-40.256,-17.2984)">
                                        <path d="M595.814,622.861C595.814,622.861 604.101,629.791 615.95,623.405C628.12,616.846 626.099,607.3 626.099,607.3" style="fill:none;stroke:rgb(64,64,64);stroke-width:8.56px;"/>
                                    </g>
                                </g>
                            </g>
                        </g>
                    </g>
                </g>
            </g>
        </g>
    </g>
</svg>
