<svg xmlns="http://www.w3.org/2000/svg" viewBox="0 0 26840 440" width="26840" height="440"><path d="M220 358.556c24.453-4.775 51.243 12.669 73.638 1.75 22.403-10.923 31.468-37.562 43.998-59.107 11.773-20.243 30.018-40.328 27.361-63.593-2.697-23.621-30.692-35.637-41.131-56.997-9.196-18.819-9.048-40.06-15.963-59.832-11.798-33.739-7.389-81.937-39.267-98.103-28.674-14.541-59.226 21.21-89.143 32.985C153.355 65.946 127.374 74 102.957 87.885c-29.059 16.525-69.545 25.611-80.629 57.148-11.15 31.724 11.818 65.651 26.907 95.702 12.193 24.282 39.206 37.283 51.925 61.294 14.99 28.298-.532 76.562 28.386 90.317 29.494 14.029 58.398-27.531 90.454-33.79M660 358.662c24.477-4.754 51.292 12.707 73.706 1.774 22.422-10.938 31.453-37.626 43.998-59.19 11.787-20.262 30.106-40.333 27.446-63.621-2.701-23.653-30.785-35.645-41.226-57.038-9.204-18.865-8.9-40.194-15.88-59.969-11.86-33.713-7.558-81.634-39.46-97.731-28.649-14.493-59.171 21.147-89.061 32.892-26.134 10.26-52.114 18.277-76.526 32.152-29.047 16.51-69.508 25.615-80.57 57.14-11.128 31.718 11.902 65.597 26.956 95.646 12.164 24.308 38.991 37.336 51.69 61.372 14.963 28.304-.443 76.503 28.473 90.258 29.489 14.027 58.402-27.449 90.454-33.685M1100 359.012c24.557-4.687 51.454 12.833 73.93 1.851 22.487-10.987 31.403-37.836 43.996-59.464 11.834-20.323 30.399-40.349 27.728-63.713-2.714-23.757-31.091-35.668-41.541-57.171-9.229-19.017-8.409-40.635-15.605-60.421-12.062-33.628-8.113-80.635-40.097-96.506-28.564-14.333-58.99 20.941-88.791 32.587-26.12 10.173-52.094 18.065-76.49 31.906-29.008 16.461-69.385 25.632-80.374 57.114-11.057 31.697 12.178 65.42 27.113 95.463 12.071 24.392 38.285 37.509 50.916 61.63 14.873 28.324-.148 76.307 28.76 90.061 29.474 14.023 58.414-27.179 90.455-33.337M1540 359.663c24.706-4.559 51.757 13.069 74.349 1.997 22.605-11.079 31.308-38.228 43.992-59.974 11.922-20.439 30.944-40.379 28.254-63.886-2.74-23.951-31.663-35.712-42.128-57.419-9.277-19.301-7.496-41.457-15.093-61.265-12.44-33.468-9.149-78.771-41.285-94.221-28.407-14.035-58.652 20.556-88.287 32.018-26.094 10.009-52.059 17.669-76.424 31.447-28.936 16.372-69.158 25.663-80.011 57.067-10.923 31.659 12.695 65.089 27.41 95.121 11.896 24.548 36.967 37.832 49.472 62.11 14.705 28.362.402 75.944 29.294 89.694 29.447 14.015 58.438-26.675 90.457-32.689M1980 360.694c24.941-4.358 52.235 13.441 75.01 2.226 22.794-11.225 31.16-38.848 43.988-60.781 12.06-20.621 31.804-40.426 29.084-64.158-2.78-24.258-32.566-35.781-43.056-57.812-9.351-19.75-6.051-42.758-14.283-62.598-13.038-33.216-10.788-75.825-43.164-90.61-28.157-13.564-58.117 19.948-87.489 31.118-26.053 9.752-52.004 17.045-76.32 30.724-28.821 16.228-68.798 25.71-79.436 56.991-10.712 31.598 13.512 64.566 27.877 94.58 11.62 24.796 34.884 38.344 47.19 62.869 14.44 28.422 1.271 75.369 30.139 89.115 29.403 14.002 58.476-25.878 90.46-31.664M2420 362.2c25.285-4.064 52.934 13.985 75.977 2.562 23.068-11.438 30.943-39.755 43.98-61.961 12.263-20.886 33.063-40.494 30.299-64.556-2.839-24.706-33.888-35.883-44.412-58.386-9.462-20.405-3.94-44.659-13.1-64.547-13.912-32.847-13.182-71.518-45.909-85.331-27.794-12.875-57.336 19.059-86.325 29.803-25.993 9.375-51.922 16.132-76.167 29.665-28.653 16.019-68.271 25.781-78.596 56.881-10.404 31.51 14.705 63.801 28.561 93.789 11.216 25.159 31.839 39.092 43.854 63.98 14.053 28.509 2.541 74.527 31.373 88.268 29.339 13.982 58.532-24.714 90.465-30.167M2860 364.291c25.762-3.656 53.904 14.741 77.319 3.028 23.45-11.733 30.641-41.013 43.969-63.599 12.545-21.255 34.811-40.589 31.986-65.109-2.921-25.328-35.722-36.024-46.295-59.183-9.614-21.315-1.009-47.297-11.456-67.252-15.126-32.335-16.507-65.539-49.722-78.001-27.289-11.92-56.252 17.824-84.708 27.977-25.909 8.851-51.808 14.864-75.955 28.195-28.42 15.728-67.54 25.877-77.428 56.727-9.976 31.388 16.361 62.74 29.509 92.691 10.656 25.663 27.612 40.13 39.222 65.521 13.515 28.631 4.305 73.361 33.088 87.093 29.25 13.955 58.608-23.097 90.471-28.088M3300 367.053c26.393-3.117 55.185 15.74 79.092 3.644 23.955-12.123 30.243-42.675 43.956-65.763 12.916-21.743 37.119-40.715 34.212-65.839-3.028-26.15-38.143-36.21-48.781-60.235-9.816-22.519 2.863-50.784-9.286-70.826-16.728-31.66-20.899-57.642-54.757-68.32-26.622-10.657-54.82 16.194-82.572 25.565-25.798 8.16-51.658 13.189-75.675 26.254-28.113 15.345-66.574 26.005-75.887 56.524-9.411 31.226 18.549 61.339 30.763 91.242 9.915 26.328 22.028 41.501 33.103 67.556 12.805 28.791 6.635 71.819 35.352 85.54 29.133 13.919 58.71-20.962 90.48-25.342M3740 370.46c27.171-2.451 56.767 16.972 81.279 4.404 24.577-12.604 29.752-44.726 43.939-68.432 13.374-22.344 39.968-40.871 36.96-66.74-3.161-27.164-41.132-36.439-51.849-61.534-10.064-24.002 7.639-55.084-6.609-75.235-18.705-30.826-26.317-47.898-60.968-56.376-25.799-9.099-53.053 14.183-79.937 22.59-25.662 7.307-51.474 11.123-75.33 23.859-27.733 14.871-65.383 26.164-73.985 56.274-8.714 31.026 21.248 59.609 32.309 89.452 9.001 27.149 15.139 43.193 25.555 70.069 11.928 28.988 9.51 69.916 38.146 83.624 28.988 13.875 58.834-18.328 90.49-21.955M4180 374.281c28.043-1.705 58.539 18.352 83.731 5.256 25.276-13.143 29.202-47.026 43.92-71.425 13.889-23.019 43.161-41.045 40.041-67.75-3.309-28.302-44.482-36.697-55.289-62.991-10.343-25.665 12.996-59.905-3.606-80.178-20.922-29.891-32.392-36.973-67.934-42.983-24.876-7.353-51.071 11.927-76.982 19.253-25.509 6.35-51.266 8.806-74.943 21.174-27.308 14.34-64.047 26.34-71.852 55.993-7.932 30.802 24.274 57.67 34.043 87.447 7.977 28.068 7.414 45.089 17.09 72.884 10.947 29.21 12.733 67.783 41.279 81.476 28.827 13.826 58.975-15.374 90.502-18.156M4620 378.132c28.923-.953 60.326 19.744 86.203 6.115 25.979-13.687 28.647-49.343 43.901-74.442 14.407-23.699 46.38-41.221 43.147-68.768-3.46-29.448-47.86-36.957-58.758-64.459-10.623-27.341 18.395-64.765-.579-85.161-23.156-28.949-38.515-25.961-74.954-29.484-23.946-5.591-49.074 9.654-74.004 15.891-25.356 5.386-51.058 6.471-74.553 18.466-26.879 13.805-62.701 26.52-69.703 55.711-7.143 30.575 27.326 55.715 35.791 85.424 6.944 28.997-.372 47.002 8.559 75.724 9.956 29.433 15.982 65.632 44.437 79.31 28.662 13.777 59.115-12.396 90.513-14.327M5060 381.694c29.736-.258 61.979 21.032 88.49 6.909 26.629-14.19 28.133-51.487 43.883-77.232 14.886-24.327 49.357-41.383 46.019-69.71-3.599-30.508-50.984-37.197-61.965-65.816-10.882-28.893 23.389-69.261 2.22-89.771-25.223-28.077-44.179-15.775-81.448-16.997-23.086-3.963-47.227 7.55-71.249 12.78-25.213 4.494-50.865 4.311-74.192 15.963-26.482 13.31-61.455 26.685-67.715 55.448-6.414 30.367 30.148 53.907 37.408 83.555 5.989 29.854-7.575 48.77.668 78.349 9.039 29.64 18.986 63.644 47.357 77.308 28.511 13.73 59.246-9.642 90.524-10.786M5500 384.825c30.451.354 63.432 22.164 90.5 7.608 27.201-14.633 27.681-53.372 43.868-79.686 15.306-24.879 51.974-41.525 48.543-70.537-3.72-31.44-53.73-37.408-64.784-67.01-11.111-30.256 27.778-73.213 4.681-93.822-27.04-27.311-49.158-6.821-87.157-6.021-22.329-2.532-45.603 5.702-68.827 10.045-25.089 3.71-50.695 2.412-73.875 13.762-26.134 12.875-60.36 26.83-65.967 55.219-5.773 30.183 32.628 52.318 38.829 81.911 5.149 30.608-13.906 50.324-6.269 80.657 8.234 29.821 21.628 61.895 49.924 75.547 28.379 13.69 59.362-7.221 90.534-7.673M5940 387.515c31.065.878 64.68 23.136 92.226 8.207 27.693-15.012 27.294-54.99 43.855-81.792 15.668-25.355 54.222-41.648 50.712-71.249-3.825-32.24-56.089-37.589-67.206-68.035-11.307-31.426 31.549-76.607 6.795-97.302-28.601-26.653-53.435.87-92.06 3.407-21.68-1.302-44.209 4.114-66.747 7.697-24.981 3.036-50.55.781-73.603 11.871-25.834 12.502-59.42 26.955-64.466 55.021-5.223 30.026 34.759 50.953 40.05 80.499 4.427 31.256-19.344 51.66-12.228 82.64 7.543 29.977 23.897 60.393 52.13 74.035 28.264 13.655 59.46-5.142 90.542-4.999M6380 389.807c31.588 1.326 65.744 23.965 93.698 8.719 28.111-15.336 26.963-56.37 43.843-83.588 15.977-25.76 56.138-41.753 52.561-71.855-3.915-32.923-58.1-37.744-69.27-68.909-11.474-32.425 34.762-79.501 8.596-100.268-29.931-26.092-57.08 7.425-96.24 11.442-21.126-.254-43.019 2.761-64.973 5.695-24.89 2.463-50.426-.609-73.371 10.26-25.579 12.183-58.618 27.062-63.187 54.853-4.753 29.891 36.575 49.789 41.091 79.295 3.813 31.808-23.979 52.798-17.306 84.33 6.953 30.11 25.831 59.114 54.009 72.746 28.167 13.625 59.544-3.37 90.549-2.72M6820 391.759c32.034 1.707 66.65 24.67 94.95 9.154 28.468-15.611 26.682-57.544 43.834-85.117 16.239-26.104 57.77-41.842 54.135-72.371-3.991-33.504-59.811-37.875-71.027-69.653-11.617-33.274 37.498-81.964 10.13-102.794-31.064-25.614-60.184 13.007-99.798 18.285-20.655.638-42.007 1.608-63.465 3.991-24.811 1.973-50.319-1.793-73.173 8.887-25.361 11.912-57.935 27.152-62.097 54.71-4.353 29.777 38.121 48.798 41.976 78.27 3.29 32.279-27.925 53.767-21.63 85.769 6.451 30.223 27.478 58.024 55.61 71.648 28.084 13.6 59.616-1.86 90.555-.779M7260 393.423c32.414 2.032 67.422 25.272 96.019 9.525 28.771-15.846 26.442-58.546 43.825-86.421 16.463-26.397 59.161-41.917 55.477-72.81-4.056-34-61.271-37.988-72.526-70.287-11.738-33.999 39.832-84.065 11.438-104.948-32.03-25.207-62.83 17.765-102.832 24.118-20.253 1.399-41.144.626-62.177 2.538-24.745 1.557-50.23-2.802-73.005 7.718-25.176 11.681-57.354 27.229-61.168 54.587-4.013 29.679 39.44 47.954 42.731 77.397 2.844 32.679-31.289 54.593-25.316 86.995 6.023 30.32 28.881 57.095 56.974 70.713 28.013 13.579 59.677-.574 90.56.875M7700 394.844c32.738 2.31 68.081 25.785 96.931 9.842 29.031-16.047 26.237-59.401 43.818-87.534 16.654-26.648 60.348-41.983 56.622-73.186-4.111-34.423-62.516-38.084-73.805-70.829-11.841-34.618 41.824-85.857 12.555-106.786-32.854-24.859-65.089 21.828-105.422 29.099-19.91 2.048-40.407-.213-61.079 1.296-24.688 1.202-50.152-3.663-72.86 6.72-25.018 11.483-56.857 27.295-60.376 54.483-3.722 29.596 40.565 47.232 43.377 76.651 2.462 33.021-34.162 55.298-28.464 88.042 5.657 30.402 30.079 56.302 58.139 69.914 27.953 13.56 59.729.525 90.564 2.288M8140 396.058c33.016 2.546 68.644 26.224 97.71 10.112 29.253-16.218 26.062-60.131 43.812-88.484 16.818-26.863 61.363-42.038 57.601-73.508-4.158-34.783-63.581-38.165-74.898-71.291-11.93-35.146 43.525-87.389 13.508-108.356-33.558-24.562-67.018 25.298-107.634 33.353-19.617 2.603-39.778-.929-60.14.237-24.64.897-50.087-4.399-72.738 5.866-24.882 11.315-56.432 27.352-59.697 54.394-3.474 29.524 41.526 46.616 43.927 76.014 2.136 33.313-36.616 55.901-31.153 88.937 5.345 30.472 31.103 55.623 59.134 69.231 27.902 13.545 59.773 1.463 90.568 3.495M8580 397.094c33.252 2.749 69.125 26.598 98.375 10.343 29.442-16.365 25.913-60.755 43.807-89.296 16.957-27.046 62.229-42.085 58.436-73.781-4.198-35.092-64.489-38.235-75.83-71.686-12.006-35.597 44.977-88.697 14.322-109.697-34.159-24.309-68.666 28.261-109.523 36.985-19.367 3.077-39.241-1.541-59.339-.668-24.599.638-50.03-5.028-72.633 5.138-24.767 11.171-56.07 27.4-59.119 54.318-3.262 29.463 42.347 46.09 44.397 75.47 1.859 33.562-38.711 56.415-33.448 89.7 5.079 30.532 31.978 55.045 59.984 68.649 27.857 13.531 59.811 2.264 90.571 4.525M9020 397.976c33.454 2.921 69.534 26.917 98.941 10.54 29.603-16.489 25.786-61.286 43.803-89.987 17.075-27.201 62.966-42.125 59.148-74.014-4.233-35.355-65.264-38.295-76.625-72.023-12.07-35.981 46.214-89.81 15.015-110.838-34.671-24.093-70.069 30.783-111.131 40.077-19.154 3.48-38.783-2.062-58.657-1.438-24.563.417-49.982-5.563-72.543 4.518-24.669 11.048-55.762 27.44-58.627 54.253-3.081 29.412 43.046 45.642 44.798 75.006 1.622 33.776-40.495 56.854-35.403 90.351 4.852 30.584 32.722 54.553 60.707 68.153 27.82 13.52 59.844 2.946 90.574 5.402M9460 398.724c33.624 3.067 69.881 27.188 99.421 10.707 29.74-16.595 25.678-61.736 43.799-90.573 17.176-27.334 63.591-42.16 59.751-74.212-4.262-35.577-65.919-38.345-77.298-72.308-12.125-36.307 47.262-90.754 15.603-111.806-35.105-23.91-71.258 32.922-112.495 42.699-18.973 3.822-38.395-2.503-58.078-2.091-24.533.229-49.942-6.016-72.468 3.992-24.585 10.944-55.5 27.475-58.209 54.198-2.928 29.368 43.638 45.263 45.137 74.614 1.422 33.955-42.007 57.224-37.059 90.902 4.66 30.627 33.352 54.135 61.32 67.733 27.788 13.51 59.871 3.524 90.576 6.145M9900 399.354c33.768 3.19 70.173 27.415 99.825 10.847 29.855-16.684 25.587-62.115 43.796-91.066 17.261-27.445 64.118-42.189 60.259-74.379-4.287-35.764-66.472-38.387-77.865-72.547-12.171-36.581 48.145-91.549 16.098-112.621-35.471-23.756-72.26 34.722-113.643 44.905-18.821 4.111-38.069-2.874-57.591-2.641-24.509.073-49.908-6.397-72.404 3.55-24.515 10.857-55.28 27.505-57.858 54.152-2.8 29.331 44.137 44.943 45.422 74.284 1.254 34.106-43.279 57.537-38.453 91.366 4.498 30.663 33.883 53.783 61.836 67.378 27.762 13.502 59.894 4.011 90.578 6.772M10340 399.878c33.888 3.293 70.417 27.605 100.162 10.964 29.951-16.757 25.512-62.43 43.793-91.477 17.332-27.537 64.556-42.212 60.682-74.517-4.307-35.921-66.932-38.423-78.338-72.747-12.208-36.81 48.881-92.211 16.511-113.3-35.775-23.627-73.094 36.223-114.6 46.745-18.693 4.35-37.796-3.185-57.185-3.1-24.487-.059-49.879-6.715-72.351 3.181-24.456 10.784-55.096 27.529-57.565 54.114-2.692 29.3 44.553 44.677 45.661 74.008 1.112 34.233-44.34 57.797-39.616 91.753 4.363 30.693 34.326 53.491 62.267 67.083 27.739 13.496 59.913 4.417 90.579 7.293M10780 400.309c33.986 3.376 70.617 27.76 100.438 11.06 30.03-16.818 25.45-62.69 43.792-91.814 17.389-27.614 64.916-42.232 61.029-74.632-4.324-36.048-67.31-38.451-78.726-72.911-12.24-36.997 49.485-92.755 16.849-113.857-36.025-23.522-73.778 37.454-115.385 48.254-18.589 4.547-37.573-3.438-56.852-3.475-24.47-.167-49.856-6.977-72.307 2.878-24.409 10.724-54.946 27.549-57.325 54.082-2.603 29.275 44.894 44.459 45.857 73.782.997 34.337-45.211 58.011-40.571 92.071 4.253 30.718 34.69 53.25 62.62 66.841 27.721 13.49 59.929 4.749 90.581 7.721M11220 400.656c34.065 3.443 70.777 27.885 100.661 11.137 30.093-16.868 25.399-62.899 43.789-92.086 17.436-27.674 65.206-42.248 61.309-74.723-4.338-36.152-67.613-38.475-79.038-73.043-12.265-37.148 49.97-93.192 17.121-114.305-36.225-23.438-74.329 38.444-116.016 49.468-18.506 4.705-37.393-3.643-56.584-3.778-24.456-.253-49.837-7.187-72.272 2.635-24.37 10.676-54.825 27.565-57.132 54.056-2.532 29.255 45.169 44.283 46.014 73.6.904 34.421-45.912 58.184-41.338 92.326 4.164 30.739 34.982 53.057 62.904 66.647 27.706 13.485 59.942 5.017 90.582 8.066M11660 400.926c34.127 3.496 70.903 27.983 100.834 11.197 30.142-16.906 25.361-63.061 43.788-92.297 17.473-27.722 65.431-42.26 61.527-74.795-4.348-36.232-67.851-38.493-79.281-73.146-12.285-37.265 50.349-93.533 17.333-114.655-36.382-23.371-74.758 39.218-116.508 50.416-18.441 4.829-37.254-3.803-56.375-4.014-24.446-.321-49.823-7.351-72.245 2.445-24.341 10.639-54.731 27.578-56.981 54.037-2.478 29.238 45.382 44.145 46.136 73.458.832 34.485-46.458 58.317-41.936 92.525 4.094 30.754 35.21 52.906 63.125 66.494 27.695 13.482 59.952 5.226 90.583 8.335M12100 401.126c34.173 3.536 70.996 28.056 100.963 11.242 30.179-16.933 25.332-63.181 43.787-92.454 17.5-27.758 65.599-42.269 61.688-74.847-4.355-36.292-68.026-38.507-79.461-73.223-12.3-37.353 50.63-93.786 17.491-114.914-36.499-23.323-75.078 39.79-116.875 51.118-18.392 4.921-37.149-3.921-56.219-4.189-24.438-.371-49.813-7.472-72.225 2.304-24.318 10.611-54.66 27.587-56.869 54.022-2.436 29.227 45.542 44.044 46.227 73.353.778 34.534-46.863 58.417-42.38 92.673 4.042 30.766 35.379 52.794 63.29 66.382 27.686 13.479 59.959 5.381 90.583 8.533M12540 401.264c34.204 3.562 71.06 28.105 101.051 11.272 30.204-16.953 25.312-63.264 43.786-92.562 17.518-27.781 65.714-42.275 61.799-74.883-4.361-36.333-68.146-38.516-79.585-73.275-12.309-37.413 50.823-93.96 17.599-115.092-36.578-23.289-75.296 40.183-117.124 51.599-18.36 4.984-37.079-4.002-56.114-4.308-24.432-.406-49.805-7.556-72.211 2.207-24.302 10.592-54.612 27.593-56.792 54.012-2.408 29.219 45.65 43.974 46.29 73.281.741 34.567-47.141 58.485-42.685 92.774 4.007 30.774 35.495 52.717 63.402 66.304 27.681 13.478 59.964 5.488 90.584 8.671M12980 401.343c34.222 3.578 71.096 28.133 101.102 11.29 30.218-16.965 25.3-63.312 43.786-92.624 17.528-27.796 65.78-42.279 61.862-74.904-4.364-36.357-68.215-38.522-79.656-73.306-12.315-37.447 50.934-94.059 17.661-115.194-36.624-23.269-75.421 40.409-117.268 51.877-18.341 5.019-37.038-4.049-56.053-4.378-24.429-.425-49.8-7.603-72.203 2.152-24.294 10.581-54.585 27.597-56.748 54.006-2.392 29.214 45.713 43.934 46.326 73.239.719 34.586-47.301 58.525-42.86 92.833 3.986 30.778 35.561 52.673 63.467 66.26 27.677 13.476 59.967 5.548 90.584 8.749" fill="#8a3ffc"/><g fill="#8a3ffc"><path d="M13420 401.368c34.228 3.583 71.108 28.143 101.118 11.296 30.223-16.968 25.297-63.327 43.786-92.644 17.532-27.8 65.801-42.28 61.883-74.911-4.365-36.364-68.238-38.523-79.679-73.315-12.317-37.458 50.969-94.091 17.681-115.227-36.639-23.263-75.462 40.482-117.315 51.966-18.334 5.031-37.024-4.064-56.033-4.4-24.428-.432-49.799-7.619-72.2 2.134-24.291 10.577-54.576 27.598-56.734 54.004-2.387 29.213 45.733 43.921 46.337 73.226.713 34.592-47.352 58.537-42.916 92.851 3.98 30.78 35.583 52.659 63.488 66.246 27.676 13.476 59.968 5.568 90.584 8.774"/><path d="M13420 401.368c34.228 3.583 71.108 28.143 101.118 11.296 30.223-16.968 25.297-63.327 43.786-92.644 17.532-27.8 65.801-42.28 61.883-74.911-4.365-36.364-68.238-38.523-79.679-73.315-12.317-37.458 50.969-94.091 17.681-115.227-36.639-23.263-75.462 40.482-117.315 51.966-18.334 5.031-37.024-4.064-56.033-4.4-24.428-.432-49.799-7.619-72.2 2.134-24.291 10.577-54.576 27.598-56.734 54.004-2.387 29.213 45.733 43.921 46.337 73.226.713 34.592-47.352 58.537-42.916 92.851 3.98 30.78 35.583 52.659 63.488 66.246 27.676 13.476 59.968 5.568 90.584 8.774"/></g><path d="M13860 401.262c34.204 3.562 71.059 28.105 101.05 11.272 30.204-16.953 25.312-63.263 43.786-92.561 17.518-27.781 65.713-42.275 61.798-74.883-4.361-36.332-68.145-38.515-79.584-73.274-12.309-37.412 50.821-93.957 17.598-115.09-36.577-23.289-75.293 40.179-117.122 51.594-18.359 4.983-37.079-4.001-56.115-4.307-24.432-.405-49.804-7.555-72.21 2.208-24.303 10.592-54.613 27.594-56.793 54.012-2.409 29.219 45.649 43.975 46.288 73.282.742 34.566-47.137 58.484-42.681 92.773 4.007 30.774 35.494 52.718 63.401 66.305 27.681 13.478 59.964 5.486 90.584 8.669M14300 400.912c34.124 3.495 70.897 27.979 100.826 11.195 30.139-16.904 25.362-63.053 43.788-92.287 17.471-27.72 65.42-42.259 61.516-74.791-4.348-36.228-67.839-38.492-79.269-73.141-12.284-37.26 50.33-93.516 17.323-114.638-36.375-23.374-74.738 39.18-116.485 50.369-18.444 4.823-37.26-3.795-56.385-4.002-24.446-.318-49.824-7.343-72.246 2.454-24.342 10.641-54.736 27.577-56.989 54.038-2.48 29.24 45.373 44.152 46.131 73.465.835 34.482-46.431 58.311-41.907 92.515 4.097 30.754 35.199 52.914 63.114 66.502 27.696 13.482 59.952 5.216 90.583 8.321M14740 400.261c33.975 3.367 70.594 27.743 100.407 11.049 30.021-16.812 25.457-62.661 43.792-91.777 17.383-27.604 64.875-42.229 60.99-74.618-4.322-36.034-67.267-38.448-78.682-72.893-12.236-36.976 49.417-92.694 16.811-113.794-35.997-23.534-73.702 37.316-115.297 48.084-18.601 4.525-37.598-3.41-56.889-3.433-24.472-.154-49.859-6.947-72.312 2.913-24.414 10.73-54.963 27.546-57.352 54.085-2.614 29.278 44.856 44.483 45.834 73.807 1.01 34.326-45.113 57.988-40.463 92.035 4.265 30.716 34.649 53.277 62.58 66.869 27.723 13.49 59.928 4.712 90.581 7.673M15180 399.23c33.74 3.166 70.116 27.371 99.746 10.82 29.832-16.666 25.605-62.041 43.796-90.97 17.245-27.422 64.015-42.182 60.16-74.346-4.282-35.727-66.364-38.379-77.754-72.5-12.162-36.527 47.972-91.393 16.001-112.461-35.399-23.786-72.063 34.37-113.418 44.473-18.851 4.054-38.133-2.802-57.687-2.533-24.513.103-49.914-6.323-72.416 3.636-24.529 10.874-55.323 27.499-57.927 54.161-2.825 29.339 44.039 45.006 45.367 74.348 1.286 34.078-43.03 57.476-38.181 91.276 4.53 30.656 33.78 53.852 61.735 67.448 27.767 13.503 59.89 3.915 90.578 6.648M15620 397.724c33.396 2.872 69.417 26.827 98.779 10.484 29.558-16.453 25.822-61.134 43.804-89.79 17.042-27.157 62.756-42.114 58.945-73.948-4.223-35.279-65.042-38.277-76.398-71.926-12.051-35.872 45.861-89.492 14.818-110.512-34.525-24.155-69.669 30.063-110.673 39.194-19.214 3.365-38.914-1.913-58.851-1.218-24.573.48-49.996-5.41-72.569 4.695-24.697 11.083-55.85 27.428-58.767 54.271-3.133 29.427 42.846 45.771 44.683 75.139 1.69 33.715-39.985 56.728-34.845 90.165 4.917 30.569 32.51 54.694 60.501 68.295 27.831 13.523 59.834 2.751 90.573 5.151M16060 395.633c32.919 2.464 68.447 26.071 97.437 10.018 29.176-16.158 26.124-59.876 43.815-88.152 16.76-26.788 61.008-42.019 57.258-73.395-4.141-34.657-63.208-38.136-74.515-71.129-11.899-34.962 42.93-86.854 13.174-107.807-33.311-24.667-66.344 24.084-106.86 31.864-19.719 2.41-39.998-.678-60.468.608-24.657 1.004-50.11-4.142-72.781 6.165-24.93 11.374-56.581 27.332-59.935 54.425-3.561 29.549 41.19 46.832 43.735 76.237 2.25 33.211-35.758 55.69-30.213 88.624 5.455 30.447 30.746 55.86 58.786 69.47 27.92 13.55 59.758 1.134 90.567 3.072M16500 392.871c32.288 1.925 67.166 25.072 95.664 9.402 28.671-15.768 26.522-58.214 43.828-85.988 16.389-26.3 58.7-41.893 55.032-72.665-4.034-33.835-60.787-37.95-72.029-70.077-11.697-33.758 39.058-83.367 11.004-104.233-31.709-25.342-61.952 16.187-101.825 22.183-20.386 1.147-41.43.952-62.604 3.02-24.768 1.695-50.26-2.467-73.061 8.106-25.237 11.757-57.547 27.204-61.476 54.628-4.126 29.711 39.002 48.233 42.481 77.686 2.991 32.546-30.174 54.319-24.094 86.589 6.165 30.287 28.416 57.402 56.522 71.023 28.037 13.586 59.656-1.001 90.558.326M16940 389.464c31.51 1.259 65.584 23.84 93.477 8.642 28.049-15.287 27.013-56.163 43.845-83.319 15.931-25.699 55.851-41.737 52.284-71.764-3.901-32.821-57.798-37.721-68.961-68.778-11.449-32.275 34.282-79.067 8.327-99.824-29.732-26.176-56.534 6.443-95.614 10.239-21.209-.411-43.197 2.963-65.239 5.995-24.904 2.548-50.444-.401-73.406 10.501-25.617 12.231-58.738 27.045-63.378 54.878-4.823 29.911 36.303 49.963 40.935 79.476 3.905 31.725-23.285 52.627-16.546 84.076 7.042 30.09 25.541 59.305 53.728 72.939 28.182 13.63 59.532-3.635 90.548-3.061M17380 385.643c30.638.513 63.812 22.46 91.025 7.79 27.35-14.748 27.563-53.863 43.864-80.326 15.416-25.024 52.658-41.563 49.203-70.754-3.753-31.683-54.448-37.463-65.521-67.321-11.17-30.612 28.925-74.246 5.324-94.881-27.515-27.111-50.459-4.482-88.648-3.154-22.132-2.157-45.179 5.219-68.194 9.332-25.057 3.505-50.652 1.916-73.793 13.186-26.042 12.762-60.074 26.869-65.511 55.159-5.605 30.135 33.277 51.902 39.201 81.481 4.929 30.806-15.56 50.731-8.081 81.261 8.023 29.868 22.318 61.438 50.595 75.087 28.343 13.679 59.391-6.589 90.536-6.86M17820 381.792c29.758-.239 62.025 21.068 88.553 6.931 26.647-14.204 28.118-51.546 43.883-77.309 14.898-24.344 49.439-41.387 46.097-69.736-3.602-30.537-51.07-37.203-62.052-65.853-10.89-28.936 23.526-69.386 2.297-89.898-25.281-28.053-44.336-15.494-81.628-16.653-23.062-3.919-47.176 7.492-71.172 12.694-25.21 4.469-50.86 4.251-74.183 15.894-26.471 13.297-61.42 26.689-67.66 55.441-6.394 30.362 30.225 53.857 37.453 83.504 5.962 29.877-7.774 48.818.45 78.421 9.014 29.645 19.069 63.589 47.437 77.253 28.508 13.728 59.251-9.567 90.525-10.689M18260 378.23c28.945-.934 60.372 19.78 86.266 6.137 25.997-13.701 28.632-49.402 43.901-74.519 14.419-23.716 46.462-41.225 43.225-68.794-3.463-29.477-47.946-36.963-58.845-64.496-10.631-27.384 18.532-64.89-.502-85.288-23.214-28.925-38.672-25.68-75.134-29.14-23.922-5.547-49.023 9.596-73.927 15.805-25.353 5.361-51.053 6.411-74.544 18.397-26.868 13.792-62.666 26.524-69.648 55.704-7.123 30.57 27.403 55.665 35.836 85.373 6.917 29.02-.571 47.05 8.341 75.796 9.931 29.438 16.065 65.577 44.517 79.255 28.659 13.775 59.12-12.321 90.514-14.23M18700 375.099c28.23-1.546 58.919 18.648 84.256 5.438 25.425-13.258 29.084-47.517 43.916-72.065 13.999-23.164 43.845-41.083 40.701-67.967-3.342-28.545-45.2-36.752-56.026-63.302-10.402-26.021 14.143-60.938-2.963-81.237-21.397-29.691-33.693-34.634-69.425-40.116-24.679-6.978-50.647 11.444-76.349 18.54-25.477 6.145-51.223 8.31-74.861 20.598-27.216 14.227-63.761 26.379-71.396 55.933-7.764 30.754 24.923 57.254 34.415 87.017 7.757 28.266 5.76 45.496 15.278 73.488 10.736 29.257 13.423 67.326 41.95 81.016 28.791 13.815 59.004-14.742 90.504-17.343M19140 372.409c27.616-2.07 57.671 17.676 82.53 4.839 24.933-12.879 29.471-45.899 43.929-69.959 13.637-22.688 41.597-40.96 38.532-67.255-3.237-27.745-42.841-36.571-53.604-62.277-10.206-24.851 10.372-57.544-5.077-77.757-19.836-30.349-29.416-42.325-64.522-49.544-25.328-8.208-52.041 13.032-78.429 20.888-25.585 6.819-51.368 9.941-75.133 22.489-27.516 14.6-64.701 26.254-72.897 56.131-8.314 30.911 22.792 58.619 33.194 88.429 8.479 27.618 11.198 44.16 21.237 71.505 11.427 29.101 11.154 68.828 39.744 82.528 28.906 13.85 58.906-16.821 90.496-20.017M19580 370.117c27.093-2.518 56.607 16.847 81.058 4.327 24.515-12.555 29.802-44.519 43.941-68.163 13.328-22.283 39.681-40.855 36.683-66.649-3.147-27.062-40.83-36.416-51.54-61.403-10.039-23.852 7.159-54.65-6.878-74.791-18.506-30.91-25.771-48.88-60.342-57.579-25.882-9.256-53.231 14.385-80.203 22.89-25.676 7.392-51.492 11.331-75.365 24.1-27.771 14.919-65.503 26.147-74.176 56.299-8.784 31.046 20.976 59.783 32.153 89.633 9.093 27.066 15.833 43.022 26.315 69.815 12.017 28.968 9.22 70.107 37.865 83.817 29.003 13.88 58.822-18.593 90.489-22.296M20020 368.165c26.647-2.899 55.701 16.142 79.806 3.892 24.158-12.28 30.083-43.345 43.95-66.634 13.066-21.939 38.049-40.766 35.109-66.133-3.071-26.481-39.119-36.285-49.783-60.659-9.896-23.003 4.423-52.187-8.412-72.265-17.373-31.388-22.667-54.462-56.784-64.422-26.353-10.148-54.243 15.538-81.711 24.594-25.755 7.882-51.599 12.515-75.563 25.473-27.989 15.19-66.186 26.057-75.266 56.442-9.184 31.16 19.43 60.774 31.268 90.658 9.616 26.595 19.779 42.053 30.639 68.376 12.519 28.855 7.573 71.197 36.264 84.915 29.086 13.905 58.75-20.103 90.483-24.237M20460 366.501c26.267-3.224 54.929 15.54 78.737 3.521 23.855-12.045 30.323-42.343 43.959-65.33 12.842-21.646 36.658-40.691 33.767-65.694-3.006-25.985-37.659-36.172-48.284-60.025-9.775-22.278 2.089-50.086-9.72-70.111-16.407-31.795-20.021-59.22-53.75-70.255-26.755-10.909-55.106 16.52-82.999 26.047-25.821 8.298-51.688 13.524-75.731 26.642-28.174 15.421-66.767 25.98-76.195 56.565-9.524 31.258 18.111 61.618 30.513 91.531 10.062 26.195 23.143 41.227 34.325 67.15 12.947 28.758 6.17 72.126 34.9 85.85 29.157 13.926 58.689-21.389 90.478-25.891M20900 365.08c25.943-3.502 54.27 15.027 77.825 3.204 23.595-11.844 30.528-41.488 43.966-64.217 12.651-21.395 35.471-40.625 32.622-65.318-2.951-25.562-36.414-36.076-47.005-59.483-9.672-21.659.097-48.294-10.837-68.273-15.583-32.143-17.762-63.283-51.16-75.236-27.098-11.558-55.843 17.359-84.097 27.289-25.878 8.653-51.766 14.385-75.876 27.64-28.332 15.619-67.264 25.914-76.987 56.669-9.815 31.341 16.986 62.34 29.867 92.277 10.444 25.853 26.016 40.522 37.473 66.103 13.313 28.676 4.972 72.919 33.735 86.649 29.217 13.945 58.637-22.488 90.474-27.304M21340 363.866c25.665-3.738 53.707 14.588 77.046 2.934 23.373-11.673 30.703-40.758 43.972-63.267 12.487-21.18 34.456-40.57 31.643-64.996-2.904-25.202-35.349-35.995-45.912-59.021-9.583-21.131-1.604-46.762-11.79-66.703-14.879-32.44-15.833-66.753-48.948-79.49-27.391-12.113-56.472 18.075-85.036 28.348-25.926 8.958-51.831 15.121-75.998 28.494-28.468 15.787-67.689 25.857-77.666 56.758-10.063 31.413 16.025 62.956 29.317 92.914 10.77 25.561 28.47 39.919 40.162 65.208 13.625 28.606 3.948 73.598 32.74 87.332 29.268 13.96 58.593-23.426 90.47-28.511M21780 362.83c25.429-3.941 53.226 14.214 76.381 2.703 23.184-11.526 30.852-40.134 43.977-62.455 12.348-20.997 33.59-40.523 30.808-64.723-2.864-24.893-34.441-35.925-44.98-58.626-9.507-20.68-3.056-45.454-12.604-65.362-14.278-32.693-14.185-69.716-47.059-83.122-27.641-12.587-57.009 18.687-85.837 29.253-25.967 9.217-51.888 15.75-76.103 29.222-28.583 15.931-68.051 25.809-78.244 56.834-10.275 31.474 15.204 63.482 28.847 93.458 11.047 25.312 30.565 39.405 42.457 64.445 13.891 28.546 3.073 74.176 31.89 87.914 29.313 13.974 58.555-24.227 90.467-29.541M22220 361.948c25.227-4.113 52.817 13.895 75.815 2.506 23.023-11.402 30.979-39.603 43.981-61.764 12.23-20.842 32.853-40.483 30.096-64.49-2.829-24.63-33.666-35.865-44.185-58.289-9.443-20.296-4.293-44.341-13.297-64.221-13.766-32.909-12.782-72.238-45.451-86.214-27.854-12.99-57.467 19.208-86.519 30.023-26.003 9.438-51.936 16.285-76.193 29.842-28.681 16.054-68.359 25.769-78.736 56.899-10.456 31.525 14.505 63.93 28.446 93.922 11.284 25.098 32.349 38.966 44.412 63.794 14.118 28.494 2.329 74.668 31.167 88.41 29.35 13.985 58.522-24.909 90.464-30.418M22660 361.2c25.057-4.259 52.47 13.624 75.335 2.339 22.886-11.296 31.087-39.153 43.985-61.178 12.129-20.709 32.228-40.448 29.493-64.292-2.8-24.408-33.011-35.815-43.512-58.004-9.388-19.97-5.341-43.397-13.885-63.253-13.332-33.092-11.593-74.377-44.087-88.836-28.035-13.332-57.855 19.649-87.098 30.676-26.033 9.626-51.976 16.738-76.268 30.368-28.765 16.158-68.621 25.734-79.154 56.954-10.609 31.569 13.913 64.309 28.107 94.314 11.484 24.919 33.861 38.596 46.068 63.243 14.31 28.451 1.699 75.086 30.554 88.83 29.382 13.995 58.495-25.487 90.462-31.161M23100 360.57c24.913-4.382 52.178 13.397 74.931 2.199 22.771-11.207 31.178-38.774 43.988-60.685 12.044-20.598 31.701-40.419 28.985-64.125-2.775-24.221-32.458-35.773-42.945-57.765-9.342-19.696-6.224-42.602-14.38-62.438-12.966-33.246-10.591-76.177-42.939-91.042-28.187-13.621-58.181 20.02-87.585 31.226-26.057 9.782-52.01 17.119-76.332 30.81-28.835 16.245-68.841 25.704-79.505 57-10.737 31.606 13.414 64.629 27.822 94.644 11.652 24.768 35.133 38.283 47.462 62.779 14.472 28.415 1.168 75.438 30.038 89.185 29.408 14.003 58.472-25.974 90.46-31.788M23540 360.046c24.793-4.485 51.934 13.207 74.594 2.082 22.675-11.134 31.253-38.459 43.991-60.274 11.973-20.506 31.263-40.396 28.562-63.987-2.755-24.064-31.998-35.737-42.472-57.565-9.305-19.467-6.96-41.94-14.793-61.759-12.662-33.375-9.757-77.678-41.982-92.882-28.315-13.86-58.454 20.331-87.991 31.685-26.079 9.914-52.039 17.437-76.385 31.179-28.894 16.318-69.025 25.68-79.798 57.038-10.845 31.637 12.998 64.895 27.583 94.92 11.794 24.641 36.194 38.023 48.625 62.392 14.607 28.385.725 75.73 29.607 89.48 29.431 14.009 58.453-26.38 90.459-32.309M23980 359.615c24.695-4.568 51.734 13.052 74.318 1.986 22.596-11.073 31.315-38.199 43.992-59.937 11.916-20.429 30.903-40.376 28.215-63.872-2.738-23.937-31.62-35.709-42.084-57.401-9.273-19.28-7.564-41.396-15.131-61.202-12.412-33.48-9.073-78.909-41.197-94.391-28.419-14.057-58.677 20.584-88.324 32.06-26.096 10.022-52.062 17.699-76.429 31.482-28.941 16.378-69.175 25.66-80.038 57.07-10.934 31.662 12.657 65.113 27.387 95.146 11.909 24.537 37.065 37.809 49.58 62.074 14.717 28.36.361 75.971 29.254 89.722 29.449 14.015 58.437-26.712 90.457-32.737M24420 359.268c24.616-4.635 51.574 12.927 74.095 1.909 22.533-11.023 31.366-37.99 43.995-59.665 11.869-20.369 30.613-40.36 27.935-63.781-2.724-23.833-31.317-35.685-41.772-57.269-9.248-19.129-8.049-40.959-15.403-60.754-12.212-33.564-8.522-79.899-40.566-95.605-28.502-14.215-58.857 20.789-88.592 32.363-26.11 10.108-52.081 17.909-76.464 31.725-28.98 16.426-69.296 25.644-80.231 57.096-11.005 31.682 12.382 65.289 27.23 95.328 12.002 24.453 37.766 37.636 50.347 61.819 14.806 28.339.069 76.164 28.97 89.916 29.464 14.02 58.424-26.98 90.456-33.082M24860 358.998c24.554-4.688 51.448 12.829 73.922 1.849 22.484-10.985 31.404-37.828 43.996-59.454 11.832-20.321 30.388-40.348 27.717-63.709-2.714-23.753-31.079-35.667-41.529-57.166-9.228-19.012-8.428-40.618-15.615-60.404-12.055-33.631-8.093-80.673-40.074-96.553-28.567-14.339-58.996 20.949-88.801 32.599-26.12 10.176-52.095 18.073-76.491 31.915-29.009 16.463-69.39 25.631-80.382 57.115-11.059 31.699 12.169 65.427 27.108 95.47 12.074 24.389 38.312 37.503 50.945 61.62 14.876 28.324-.159 76.315 28.749 90.069 29.475 14.023 58.414-27.189 90.455-33.351M25300 358.798c24.508-4.728 51.355 12.756 73.793 1.804 22.447-10.958 31.433-37.708 43.997-59.297 11.805-20.285 30.22-40.339 27.556-63.657-2.707-23.693-30.904-35.653-41.349-57.089-9.213-18.924-8.709-40.365-15.773-60.145-11.938-33.679-7.773-81.245-39.707-97.255-28.616-14.431-59.101 21.067-88.957 32.774-26.128 10.226-52.105 18.194-76.511 32.056-29.032 16.491-69.461 25.622-80.494 57.13-11.101 31.71 12.009 65.528 27.017 95.575 12.128 24.34 38.717 37.403 51.389 61.472 14.928 28.312-.328 76.427 28.584 90.181 29.484 14.026 58.407-27.344 90.455-33.549M25740 358.66c24.477-4.754 51.291 12.707 73.705 1.774 22.422-10.938 31.453-37.625 43.998-59.189 11.787-20.262 30.105-40.333 27.445-63.621-2.701-23.652-30.784-35.644-41.225-57.037-9.204-18.864-8.902-40.191-15.881-59.967-11.859-33.713-7.555-81.638-39.458-97.736-28.648-14.494-59.171 21.148-89.062 32.893-26.134 10.261-52.113 18.278-76.525 32.153-29.048 16.51-69.509 25.616-80.571 57.14-11.129 31.718 11.901 65.598 26.954 95.647 12.165 24.307 38.995 37.335 51.694 61.371 14.963 28.304-.444 76.504 28.472 90.259 29.489 14.027 58.402-27.451 90.454-33.687M26180 358.581c24.459-4.77 51.255 12.679 73.654 1.756 22.408-10.926 31.465-37.577 43.998-59.127 11.777-20.247 30.039-40.329 27.382-63.6-2.698-23.628-30.715-35.638-41.154-57.006-9.198-18.83-9.013-40.092-15.943-59.865-11.813-33.733-7.43-81.864-39.314-98.014-28.667-14.529-59.212 21.195-89.123 32.963-26.137 10.28-52.118 18.325-76.533 32.208-29.056 16.521-69.536 25.612-80.615 57.146-11.145 31.723 11.838 65.638 26.918 95.689 12.187 24.288 39.155 37.295 51.869 61.312 14.984 28.3-.51 76.548 28.407 90.303 29.493 14.029 58.399-27.511 90.454-33.765M26620 358.556c24.453-4.775 51.243 12.669 73.638 1.75 22.403-10.923 31.468-37.562 43.998-59.107 11.773-20.243 30.018-40.328 27.361-63.593-2.697-23.621-30.692-35.637-41.131-56.997-9.196-18.819-9.048-40.06-15.963-59.832-11.798-33.739-7.389-81.937-39.267-98.103-28.674-14.541-59.226 21.21-89.143 32.985-26.138 10.287-52.119 18.341-76.536 32.226-29.059 16.525-69.545 25.611-80.629 57.148-11.15 31.724 11.818 65.651 26.907 95.702 12.193 24.282 39.206 37.283 51.925 61.294 14.99 28.298-.532 76.562 28.386 90.317 29.494 14.029 58.398-27.531 90.454-33.79" fill="#8a3ffc"/></svg>