<svg width="100%" height="100%" viewBox="0 0 100 100" version="1.1" xmlns="http://www.w3.org/2000/svg"
  xmlns:xlink="http://www.w3.org/1999/xlink" xml:space="preserve" xmlns:serif="http://www.serif.com/"
  style="fill-rule:evenodd;clip-rule:evenodd;stroke-linejoin:round;stroke-miterlimit:2;">
  <g id="_01" serif:id="01" transform="matrix(1.44407,0,0,1.44407,-10.444,0.17884)">
    <path
      d="M23.448,3.057C30.699,3.057 36.969,8.954 36.586,16.194C36.185,23.762 30.349,29.608 23.448,29.332C16.203,29.042 10.311,23.445 10.311,16.194C10.311,8.944 16.197,3.057 23.448,3.057Z"
      style="fill:rgb(235,235,235);" />
  </g>
  <g transform="matrix(1.44407,0,0,1.44407,-9.83864,1.40551)">
    <path
      d="M23.448,3.057C30.699,3.057 35.713,8.996 36.586,16.194C37.635,24.848 31.916,30.96 23.448,29.332C16.328,27.963 10.311,23.445 10.311,16.194C10.311,8.944 16.197,3.057 23.448,3.057Z"
      style="fill:rgb(235,235,235);" />
  </g>
  <g transform="matrix(1.44407,0,0,1.44407,-8.95562,2.45922)">
    <path
      d="M23.448,3.057C30.699,3.057 34.43,9.272 36.586,16.194C39.979,27.088 34.118,33.064 23.448,29.332C16.604,26.938 10.311,23.445 10.311,16.194C10.311,8.944 16.197,3.057 23.448,3.057Z"
      style="fill:rgb(235,235,235);" />
  </g>
  <g transform="matrix(1.44407,0,0,1.44407,-8.41851,1.87597)">
    <path
      d="M23.448,5.279C30.699,5.279 32.458,10.194 35.554,16.751C43.053,32.627 38.18,36.477 23.929,28.4C17.621,24.825 12.59,22.446 12.59,15.196C12.59,7.945 16.197,5.279 23.448,5.279Z"
      style="fill:rgb(235,235,235);" />
  </g>
  <g transform="matrix(1.44407,0,0,1.44407,-6.58912,3.90139)">
    <path
      d="M23.41,6.131C30.661,6.131 30.798,11.592 34.352,17.912C46.428,39.389 44.173,40.045 25.821,26.948C19.919,22.736 12.59,22.411 12.59,15.16C12.59,7.909 16.159,6.131 23.41,6.131Z"
      style="fill:rgb(235,235,235);" />
  </g>
  <g transform="matrix(1.44407,0,0,1.44407,-8.41851,1.87597)">
    <path
      d="M23.448,5.279C30.699,5.279 32.458,10.194 35.554,16.751C43.053,32.627 38.18,36.477 23.929,28.4C17.621,24.825 12.59,22.446 12.59,15.196C12.59,7.945 16.197,5.279 23.448,5.279Z"
      style="fill:rgb(235,235,235);" />
  </g>
  <g transform="matrix(1.44407,0,0,1.44407,-8.95562,2.45922)">
    <path
      d="M23.448,3.057C30.699,3.057 34.43,9.272 36.586,16.194C39.979,27.088 34.118,33.064 23.448,29.332C16.604,26.938 10.311,23.445 10.311,16.194C10.311,8.944 16.197,3.057 23.448,3.057Z"
      style="fill:rgb(235,235,235);" />
  </g>
  <g transform="matrix(1.44407,0,0,1.44407,-9.83864,1.40551)">
    <path
      d="M23.448,3.057C30.699,3.057 35.713,8.996 36.586,16.194C37.635,24.848 31.916,30.96 23.448,29.332C16.328,27.963 10.311,23.445 10.311,16.194C10.311,8.944 16.197,3.057 23.448,3.057Z"
      style="fill:rgb(235,235,235);" />
  </g>
  <g transform="matrix(1.44407,0,0,1.44407,-10.444,0.17884)">
    <path
      d="M23.448,3.057C30.699,3.057 36.969,8.954 36.586,16.194C36.185,23.762 30.349,29.608 23.448,29.332C16.203,29.042 10.311,23.445 10.311,16.194C10.311,8.944 16.197,3.057 23.448,3.057Z"
      style="fill:rgb(235,235,235);" />
  </g>
  <g transform="matrix(1.44407,0,0,1.44407,-10.6295,0.0979583)">
    <path
      d="M23.448,3.057C30.699,3.057 38.877,9.315 36.586,16.194C34.346,22.919 28.636,28.738 23.448,29.332C16.244,30.158 10.311,23.445 10.311,16.194C10.311,8.944 16.197,3.057 23.448,3.057Z"
      style="fill:rgb(235,235,235);" />
  </g>
  <g transform="matrix(1.44407,0,0,1.44407,-10.6295,0.0979583)">
    <path
      d="M23.448,3.057C30.543,1.561 41.661,11.016 36.586,16.194C32.638,20.223 27.289,26.611 23.448,29.332C17.532,33.524 9.697,23.419 10.311,16.194C10.833,10.039 16.86,4.445 23.448,3.057Z"
      style="fill:rgb(235,235,235);" />
  </g>
  <g transform="matrix(1.44407,0,0,1.44407,-10.6295,0.0979583)">
    <path
      d="M23.448,3.057C30.063,0.086 43.312,13.486 36.586,16.194C31.248,18.344 26.101,25.006 23.448,29.332C19.657,35.513 8.573,23.234 10.311,16.194C11.646,10.783 18.01,5.499 23.448,3.057Z"
      style="fill:rgb(235,235,235);" />
  </g>
  <g transform="matrix(1.44407,0,0,1.44407,-10.6295,0.0979583)">
    <path
      d="M23.448,3.057C30.543,1.561 41.661,11.016 36.586,16.194C32.638,20.223 27.289,26.611 23.448,29.332C17.532,33.524 9.697,23.419 10.311,16.194C10.833,10.039 16.86,4.445 23.448,3.057Z"
      style="fill:rgb(235,235,235);" />
  </g>
  <g transform="matrix(1.44407,0,0,1.44407,-10.6295,0.0979583)">
    <path
      d="M23.448,3.057C30.699,3.057 38.877,9.315 36.586,16.194C34.346,22.919 28.636,28.738 23.448,29.332C16.244,30.158 10.311,23.445 10.311,16.194C10.311,8.944 16.197,3.057 23.448,3.057Z"
      style="fill:rgb(235,235,235);" />
  </g>
  <g transform="matrix(1.44407,0,0,1.44407,-10.444,0.17884)">
    <path
      d="M23.448,3.057C30.699,3.057 36.969,8.954 36.586,16.194C36.185,23.762 30.349,29.608 23.448,29.332C16.203,29.042 10.311,23.445 10.311,16.194C10.311,8.944 16.197,3.057 23.448,3.057Z"
      style="fill:rgb(235,235,235);" />
  </g>
</svg>
